<svg width="360" height="360" viewBox="0 0 360 360" fill="none" xmlns="http://www.w3.org/2000/svg">
<path d="M180 0C279.411 0 360 80.5887 360 180C360 279.411 279.411 360 180 360C80.5887 360 0 279.411 0 180C0 80.5887 80.5887 0 180 0ZM198.841 161.231C183.855 146.317 159.502 146.317 144.588 161.231L106.186 199.634C91.2716 214.548 91.2714 238.9 106.186 253.814C121.172 268.729 145.524 268.728 160.438 253.814L196.247 218.006C188.178 221.752 178.739 221.608 170.67 217.646L147.47 240.846C139.688 248.627 127.008 248.627 119.227 240.846C111.445 233.064 111.445 220.384 119.227 212.603L157.701 174.128C165.483 166.347 178.091 166.347 185.872 174.2C187.097 175.425 189.547 177.874 189.763 177.586C193.221 179.459 197.688 178.955 200.642 176.001C203.596 173.047 204.172 168.653 202.299 165.194C202.227 165.122 202.227 165.05 202.155 164.978C201.723 164.329 201.218 163.609 200.642 163.032C200.426 162.816 200.209 162.672 199.993 162.456C199.633 162.024 199.273 161.664 198.841 161.231ZM253.814 106.186C238.828 91.2714 214.476 91.2715 199.562 106.186L163.753 141.994C171.822 138.248 181.333 138.464 189.33 142.354L212.53 119.227C220.312 111.445 232.992 111.445 240.773 119.227C248.555 127.008 248.555 139.688 240.773 147.47L202.299 185.944C194.517 193.725 181.909 193.653 174.128 185.872C172.903 184.648 170.454 182.198 170.237 182.485C166.779 180.612 162.312 181.117 159.358 184.07C156.404 187.024 155.828 191.42 157.701 194.878C157.773 194.95 157.773 195.023 157.845 195.095C158.277 195.743 158.782 196.464 159.358 197.04C159.574 197.256 159.791 197.4 160.007 197.616C160.367 198.048 160.727 198.409 161.159 198.841C176.145 213.755 200.498 213.755 215.412 198.841L253.814 160.438C268.801 145.524 268.801 121.172 253.814 106.186Z" fill="white"/>
</svg>
