<svg width="489" height="489" viewBox="0 0 489 489" fill="none" xmlns="http://www.w3.org/2000/svg">
<path d="M243.61 34.4426C240.183 33.0181 236.413 32.6379 232.771 33.3495C229.129 34.0612 225.778 35.8331 223.14 38.4426L122.32 138.263H53.79C51.3216 138.263 48.8774 138.749 46.5971 139.694C44.3167 140.639 42.2449 142.024 40.4999 143.77C38.755 145.515 37.3711 147.588 36.4274 149.869C35.4837 152.15 34.9987 154.594 35 157.063V333.663C34.9987 336.131 35.4837 338.575 36.4274 340.856C37.3711 343.137 38.755 345.21 40.4999 346.956C42.2449 348.701 44.3167 350.086 46.5971 351.031C48.8774 351.976 51.3216 352.463 53.79 352.463H122.32L223.14 452.293C225.778 454.894 229.126 456.658 232.763 457.363C236.4 458.068 240.164 457.682 243.583 456.255C247.002 454.827 249.923 452.422 251.979 449.34C254.035 446.258 255.135 442.637 255.14 438.933V51.7926C255.142 48.0861 254.049 44.4616 251.998 41.3746C249.946 38.2876 247.028 35.8759 243.61 34.4426Z" fill="black"/>
<path d="M324.93 137.173C323.193 135.389 321.119 133.969 318.829 132.994C316.539 132.019 314.078 131.508 311.588 131.491C309.099 131.475 306.631 131.953 304.328 132.898C302.025 133.842 299.933 135.235 298.172 136.995C296.412 138.755 295.018 140.847 294.073 143.149C293.127 145.452 292.648 147.92 292.664 150.409C292.679 152.898 293.189 155.359 294.164 157.65C295.138 159.941 296.558 162.015 298.34 163.753C319.953 185.413 332.092 214.763 332.092 245.363C332.092 275.962 319.953 305.312 298.34 326.973C294.814 330.499 292.833 335.281 292.833 340.268C292.833 345.254 294.814 350.037 298.34 353.563C301.866 357.089 306.648 359.07 311.635 359.07C316.622 359.07 321.404 357.089 324.93 353.563C384.58 293.903 384.58 196.833 324.93 137.173Z" fill="black"/>
<path d="M384.24 77.8826C380.715 74.3579 375.935 72.3777 370.95 72.3777C365.965 72.3777 361.185 74.3579 357.66 77.8826C354.135 81.4073 352.155 86.1879 352.155 91.1726C352.155 96.1573 354.135 100.938 357.66 104.463C435.35 182.153 435.36 308.563 357.66 386.273C355.915 388.018 354.53 390.09 353.586 392.37C352.641 394.65 352.155 397.094 352.155 399.563C352.155 402.031 352.641 404.475 353.586 406.755C354.53 409.035 355.915 411.107 357.66 412.853C359.405 414.598 361.477 415.982 363.758 416.927C366.038 417.871 368.482 418.357 370.95 418.357C373.418 418.357 375.862 417.871 378.142 416.927C380.423 415.982 382.495 414.598 384.24 412.853C476.57 320.493 476.57 170.223 384.24 77.8826Z" fill="black"/>
</svg>
