<svg xmlns="http://www.w3.org/2000/svg" xmlns:v="https://svgstorm.com"
viewBox = "0 0 329 318"
width="329"
height="318">
<g fill="None" fill-opacity="0.0" stroke="#000000" stroke-opacity="0.00" stroke-width="0.3"><path d="
M 0.00 318.00 
L 329.00 318.00
L 329.00 0.00
L 0.00 0.00
L 0.00 318.00
M 75.00 99.00 
C 86.98 83.37 107.29 106.39 94.00 118.00
C 100.34 119.18 106.39 115.59 114.00 117.00 C 125.07 118.58 114.05 127.73 107.00 124.00
C 106.67 130.37 120.36 123.39 117.00 133.00
C 113.67 133.00 110.33 133.00 107.00 133.00
C 106.66 139.71 123.61 131.90 118.22 142.22 C 111.32 144.00 103.32 142.51 96.00 143.00
C 96.25 149.01 87.93 146.45 84.00 147.00
C 83.34 152.30 90.85 149.14 94.00 150.00
C 96.08 157.01 88.56 156.31 84.00 156.00
C 84.65 161.50 82.68 168.33 85.00 173.00
C 85.76 165.89 90.08 161.46 97.03 163.02 C 103.17 164.59 117.43 158.51 116.00 169.00
C 105.81 166.67 111.42 180.15 110.00 186.00
C 117.64 181.31 133.88 193.58 120.00 195.00
C 134.86 201.71 119.83 217.81 108.00 210.00
C 105.34 216.82 108.60 225.15 106.00 232.00
C 108.64 233.78 111.01 236.73 111.00 240.00
C 112.23 235.77 122.09 225.83 123.06 234.08 C 120.73 240.35 114.38 245.36 116.00 253.00
C 131.00 253.00 146.00 253.00 161.00 253.00 C 174.91 251.42 191.01 256.78 203.00 249.00
C 203.02 244.27 204.66 239.92 204.00 235.00
C 193.00 235.00 182.00 235.00 171.00 235.00 C 162.27 233.68 143.50 240.22 147.00 225.00 C 147.00 191.00 147.00 157.00 147.00 123.00 C 144.38 108.29 163.55 115.79 172.00 114.00 C 205.67 114.00 239.33 114.00 273.00 114.00 C 281.51 116.29 300.84 107.78 299.00 122.00 C 299.00 156.00 299.00 190.00 299.00 224.00 C 303.18 239.48 285.11 234.26 276.00 235.00 C 264.67 235.00 253.33 235.00 242.00 235.00
C 241.25 239.95 243.39 244.13 243.00 249.00
C 263.76 258.87 291.19 248.46 313.23 254.77 C 337.68 263.38 323.05 295.82 327.00 316.00
C 322.67 316.00 318.33 316.00 314.00 316.00
C 311.64 299.15 322.91 266.36 296.98 267.02 C 208.98 266.97 120.99 267.02 33.00 267.00 C 6.21 265.38 17.13 298.84 15.00 316.00
C 10.67 316.00 6.33 316.00 2.00 316.00
C 2.00 301.33 2.00 286.67 2.00 272.00 C 1.62 258.64 16.00 251.30 28.00 253.00
C 28.00 247.00 28.00 241.00 28.00 235.00 C 29.75 228.09 39.35 233.95 36.00 240.00
C 44.58 243.40 39.35 232.72 45.03 232.03 C 52.82 230.14 48.26 239.98 51.00 243.00
C 52.40 236.39 56.69 228.67 52.08 221.92 C 48.51 216.35 44.91 210.25 44.00 204.00
C 44.90 206.90 41.08 208.06 42.00 211.00
C 36.95 212.38 34.55 209.44 34.00 205.00
C 33.37 209.45 31.74 212.51 26.00 211.00
C 26.00 202.67 26.00 194.33 26.00 186.00
C 29.00 186.00 32.00 186.00 35.00 186.00
C 36.26 189.67 36.69 195.38 40.00 197.00
C 41.71 194.97 40.31 192.04 42.00 190.00
C 35.84 185.62 37.09 176.31 34.22 169.78 C 29.64 157.77 46.76 164.33 42.00 174.00
C 46.52 173.11 42.05 163.17 48.03 163.03 C 54.69 161.53 53.81 169.02 55.00 173.00
C 57.98 170.59 56.37 165.88 59.00 163.00
C 52.80 158.46 54.73 148.72 58.00 143.00
C 50.63 145.40 54.48 136.96 52.00 134.00
C 52.11 145.09 39.64 145.29 40.00 134.00
C 37.92 136.10 39.50 140.15 39.00 143.00
C 29.44 145.67 32.32 134.69 32.00 129.00 C 30.84 122.00 31.88 114.15 41.00 117.00
C 43.22 121.21 44.26 125.56 46.00 130.00
C 48.88 120.60 55.51 113.43 53.00 102.00 C 50.41 89.12 69.51 93.57 75.00 99.00 Z"/>
</g>
<g fill="None" fill-opacity="0.0" stroke="#FEFEFE" stroke-opacity="1.00" stroke-width="0.3"><path d="
M 75.00 99.00 
C 69.51 93.57 50.41 89.12 53.00 102.00 C 55.51 113.43 48.88 120.60 46.00 130.00
C 44.26 125.56 43.22 121.21 41.00 117.00
C 31.88 114.15 30.84 122.00 32.00 129.00 C 32.32 134.69 29.44 145.67 39.00 143.00
C 39.50 140.15 37.92 136.10 40.00 134.00
C 39.64 145.29 52.11 145.09 52.00 134.00
C 54.48 136.96 50.63 145.40 58.00 143.00
C 54.73 148.72 52.80 158.46 59.00 163.00
C 56.37 165.88 57.98 170.59 55.00 173.00
C 53.81 169.02 54.69 161.53 48.03 163.03 C 42.05 163.17 46.52 173.11 42.00 174.00
C 46.76 164.33 29.64 157.77 34.22 169.78 C 37.09 176.31 35.84 185.62 42.00 190.00
C 40.31 192.04 41.71 194.97 40.00 197.00
C 36.69 195.38 36.26 189.67 35.00 186.00
C 32.00 186.00 29.00 186.00 26.00 186.00
C 26.00 194.33 26.00 202.67 26.00 211.00
C 31.74 212.51 33.37 209.45 34.00 205.00
C 34.55 209.44 36.95 212.38 42.00 211.00
C 41.08 208.06 44.90 206.90 44.00 204.00
C 44.91 210.25 48.51 216.35 52.08 221.92 C 56.69 228.67 52.40 236.39 51.00 243.00
C 48.26 239.98 52.82 230.14 45.03 232.03 C 39.35 232.72 44.58 243.40 36.00 240.00
C 39.35 233.95 29.75 228.09 28.00 235.00 C 28.00 241.00 28.00 247.00 28.00 253.00
C 16.00 251.30 1.62 258.64 2.00 272.00 C 2.00 286.67 2.00 301.33 2.00 316.00
C 6.33 316.00 10.67 316.00 15.00 316.00
C 17.13 298.84 6.21 265.38 33.00 267.00 C 120.99 267.02 208.98 266.97 296.98 267.02 C 322.91 266.36 311.64 299.15 314.00 316.00
C 318.33 316.00 322.67 316.00 327.00 316.00
C 323.05 295.82 337.68 263.38 313.23 254.77 C 291.19 248.46 263.76 258.87 243.00 249.00
C 243.39 244.13 241.25 239.95 242.00 235.00
C 253.33 235.00 264.67 235.00 276.00 235.00 C 285.11 234.26 303.18 239.48 299.00 224.00 C 299.00 190.00 299.00 156.00 299.00 122.00 C 300.84 107.78 281.51 116.29 273.00 114.00 C 239.33 114.00 205.67 114.00 172.00 114.00 C 163.55 115.79 144.38 108.29 147.00 123.00 C 147.00 157.00 147.00 191.00 147.00 225.00 C 143.50 240.22 162.27 233.68 171.00 235.00 C 182.00 235.00 193.00 235.00 204.00 235.00
C 204.66 239.92 203.02 244.27 203.00 249.00
C 191.01 256.78 174.91 251.42 161.00 253.00 C 146.00 253.00 131.00 253.00 116.00 253.00
C 114.38 245.36 120.73 240.35 123.06 234.08 C 122.09 225.83 112.23 235.77 111.00 240.00
C 111.01 236.73 108.64 233.78 106.00 232.00
C 108.60 225.15 105.34 216.82 108.00 210.00
C 119.83 217.81 134.86 201.71 120.00 195.00
C 133.88 193.58 117.64 181.31 110.00 186.00
C 111.42 180.15 105.81 166.67 116.00 169.00
C 117.43 158.51 103.17 164.59 97.03 163.02 C 90.08 161.46 85.76 165.89 85.00 173.00
C 82.68 168.33 84.65 161.50 84.00 156.00
C 88.56 156.31 96.08 157.01 94.00 150.00
C 90.85 149.14 83.34 152.30 84.00 147.00
C 87.93 146.45 96.25 149.01 96.00 143.00
C 103.32 142.51 111.32 144.00 118.22 142.22 C 123.61 131.90 106.66 139.71 107.00 133.00
C 110.33 133.00 113.67 133.00 117.00 133.00
C 120.36 123.39 106.67 130.37 107.00 124.00
C 114.05 127.73 125.07 118.58 114.00 117.00 C 106.39 115.59 100.34 119.18 94.00 118.00
C 107.29 106.39 86.98 83.37 75.00 99.00
M 60.00 114.00 
C 60.00 109.67 60.00 105.33 60.00 101.00
C 71.12 98.54 71.68 117.07 60.00 114.00
M 88.00 101.00 
C 92.02 105.16 90.32 117.30 82.78 113.22 C 77.13 108.88 80.37 99.10 88.00 101.00
M 77.00 119.00 
C 70.65 117.68 76.10 113.56 77.00 119.00
M 292.00 120.00 
C 292.00 149.33 292.00 178.67 292.00 208.00
C 246.00 208.00 200.00 208.00 154.00 208.00
C 154.00 178.67 154.00 149.33 154.00 120.00
C 200.00 120.00 246.00 120.00 292.00 120.00
M 66.00 124.00 
C 73.99 120.65 77.34 133.39 71.30 136.30 C 63.81 139.24 63.11 128.40 66.00 124.00
M 93.00 124.00 
C 91.93 133.91 81.28 121.66 93.00 124.00
M 94.00 141.00 
C 88.41 142.48 85.59 139.58 87.00 134.00
C 92.11 133.39 93.20 136.90 94.00 141.00
M 71.00 147.00 
C 73.90 151.87 71.58 163.65 64.26 158.74 C 59.54 153.72 63.00 144.05 71.00 147.00
M 77.00 163.00 
C 77.00 166.00 77.00 169.00 77.00 172.00
C 72.18 172.73 67.12 172.23 69.00 166.00
C 72.20 166.67 74.60 164.59 77.00 163.00
M 101.00 179.00 
C 101.09 175.35 98.23 172.60 98.00 169.00
C 103.81 167.19 102.55 176.48 101.00 179.00
M 50.00 178.00 
C 49.78 181.29 53.30 187.35 47.00 186.00
C 49.23 183.78 46.35 179.15 50.00 178.00
M 77.00 178.00 
C 77.00 181.00 77.00 184.00 77.00 187.00
C 74.69 185.45 71.32 185.62 69.00 187.00
C 69.00 184.00 69.00 181.00 69.00 178.00
C 71.67 178.00 74.33 178.00 77.00 178.00
M 62.00 182.00 
C 63.45 188.19 57.23 184.37 62.00 182.00
M 96.00 185.00 
C 94.04 186.52 88.89 186.72 87.00 185.00
C 89.44 183.70 93.99 183.13 96.00 185.00
M 54.00 188.00 
C 58.28 189.92 53.47 192.91 54.00 196.00
C 52.50 194.36 52.28 189.57 54.00 188.00
M 68.00 197.00 
C 68.48 193.63 63.76 190.16 68.00 188.00
C 69.52 189.96 69.72 195.11 68.00 197.00
M 77.00 192.00 
C 75.31 185.77 82.75 190.05 77.00 192.00
M 89.00 192.00 
C 88.38 195.50 90.27 200.32 88.00 203.00
C 84.78 199.19 82.01 193.60 89.00 192.00
M 119.00 194.00 
C 117.66 196.09 112.72 194.67 113.00 192.00
C 115.47 191.32 117.18 192.78 119.00 194.00
M 105.00 194.00 
C 103.04 195.52 97.89 195.72 96.00 194.00
C 97.96 192.48 103.11 192.28 105.00 194.00
M 61.00 197.00 
C 64.14 200.80 57.61 199.75 61.00 197.00
M 110.00 200.00 
C 106.28 203.57 105.58 197.15 110.00 200.00
M 104.00 201.00 
C 104.99 205.77 98.70 203.45 96.00 204.00
C 95.01 199.23 101.30 201.55 104.00 201.00
M 119.00 204.00 
C 116.80 206.39 110.78 204.92 111.00 201.00
C 113.76 201.76 116.75 201.94 119.00 204.00
M 78.00 202.00 
C 79.67 204.71 82.51 206.80 83.00 210.00
C 78.92 210.00 74.56 205.60 78.00 202.00
M 65.00 207.00 
C 64.10 210.16 58.70 211.72 59.00 216.00
C 55.98 216.61 56.43 212.50 54.00 212.00
C 56.27 207.94 60.05 203.65 65.00 207.00
M 100.00 211.00 
C 98.99 217.17 103.82 230.53 93.00 228.00
C 94.18 221.59 88.88 208.06 100.00 211.00
M 72.00 228.00 
C 69.24 223.31 70.25 211.95 78.22 215.78 C 83.85 220.24 79.79 230.62 72.00 228.00
M 63.00 223.00 
C 64.04 229.51 68.95 235.37 65.00 242.00
C 63.93 236.05 59.77 228.87 63.00 223.00
M 80.00 238.00 
C 80.12 249.88 67.18 235.83 80.00 238.00
M 97.00 238.00 
C 100.51 248.94 84.26 237.36 97.00 238.00
M 59.00 243.00 
C 60.10 248.61 54.16 243.37 59.00 243.00
M 108.00 253.00 
C 102.67 253.00 97.33 253.00 92.00 253.00
C 90.68 245.32 103.52 252.15 104.00 244.00
C 108.25 244.25 108.18 249.74 108.00 253.00
M 42.00 247.00 
C 43.23 251.31 40.85 254.67 36.33 252.67 C 34.31 248.05 37.68 245.89 42.00 247.00
M 84.00 248.00 
C 86.10 254.97 78.16 252.69 74.00 253.00
C 72.48 246.52 80.71 250.24 84.00 248.00
M 62.00 252.00 
C 55.89 254.91 53.68 250.79 62.00 252.00 Z"/>
</g>
<g fill="None" fill-opacity="0.0" stroke="#000000" stroke-opacity="0.00" stroke-width="0.3"><path d="
M 60.00 114.00 
C 71.68 117.07 71.12 98.54 60.00 101.00
C 60.00 105.33 60.00 109.67 60.00 114.00 Z"/>
</g>
<g fill="None" fill-opacity="0.0" stroke="#000000" stroke-opacity="0.00" stroke-width="0.3"><path d="
M 88.00 101.00 
C 80.37 99.10 77.13 108.88 82.78 113.22 C 90.32 117.30 92.02 105.16 88.00 101.00 Z"/>
</g>
<g fill="None" fill-opacity="0.0" stroke="#090909" stroke-opacity="0.14" stroke-width="0.3"><path d="
M 77.00 119.00 
C 76.10 113.56 70.65 117.68 77.00 119.00 Z"/>
</g>
<g fill="None" fill-opacity="0.0" stroke="#000000" stroke-opacity="0.00" stroke-width="0.3"><path d="
M 292.00 120.00 
C 246.00 120.00 200.00 120.00 154.00 120.00
C 154.00 149.33 154.00 178.67 154.00 208.00
C 200.00 208.00 246.00 208.00 292.00 208.00
C 292.00 178.67 292.00 149.33 292.00 120.00 Z"/>
</g>
<g fill="None" fill-opacity="0.0" stroke="#000000" stroke-opacity="0.00" stroke-width="0.3"><path d="
M 66.00 124.00 
C 63.11 128.40 63.81 139.24 71.30 136.30 C 77.34 133.39 73.99 120.65 66.00 124.00 Z"/>
</g>
<g fill="None" fill-opacity="0.0" stroke="#000000" stroke-opacity="0.00" stroke-width="0.3"><path d="
M 93.00 124.00 
C 81.28 121.66 91.93 133.91 93.00 124.00 Z"/>
</g>
<g fill="None" fill-opacity="0.0" stroke="#000000" stroke-opacity="0.00" stroke-width="0.3"><path d="
M 94.00 141.00 
C 93.20 136.90 92.11 133.39 87.00 134.00
C 85.59 139.58 88.41 142.48 94.00 141.00 Z"/>
</g>
<g fill="None" fill-opacity="0.0" stroke="#000000" stroke-opacity="0.00" stroke-width="0.3"><path d="
M 71.00 147.00 
C 63.00 144.05 59.54 153.72 64.26 158.74 C 71.58 163.65 73.90 151.87 71.00 147.00 Z"/>
</g>
<g fill="None" fill-opacity="0.0" stroke="#000000" stroke-opacity="0.00" stroke-width="0.3"><path d="
M 77.00 163.00 
C 74.60 164.59 72.20 166.67 69.00 166.00
C 67.12 172.23 72.18 172.73 77.00 172.00
C 77.00 169.00 77.00 166.00 77.00 163.00 Z"/>
</g>
<g fill="None" fill-opacity="0.0" stroke="#000000" stroke-opacity="0.00" stroke-width="0.3"><path d="
M 101.00 179.00 
C 102.55 176.48 103.81 167.19 98.00 169.00
C 98.23 172.60 101.09 175.35 101.00 179.00 Z"/>
</g>
<g fill="None" fill-opacity="0.0" stroke="#000000" stroke-opacity="0.00" stroke-width="0.3"><path d="
M 50.00 178.00 
C 46.35 179.15 49.23 183.78 47.00 186.00
C 53.30 187.35 49.78 181.29 50.00 178.00 Z"/>
</g>
<g fill="None" fill-opacity="0.0" stroke="#000000" stroke-opacity="0.00" stroke-width="0.3"><path d="
M 77.00 178.00 
C 74.33 178.00 71.67 178.00 69.00 178.00
C 69.00 181.00 69.00 184.00 69.00 187.00
C 71.32 185.62 74.69 185.45 77.00 187.00
C 77.00 184.00 77.00 181.00 77.00 178.00 Z"/>
</g>
<g fill="None" fill-opacity="0.0" stroke="#000000" stroke-opacity="0.00" stroke-width="0.3"><path d="
M 62.00 182.00 
C 57.23 184.37 63.45 188.19 62.00 182.00 Z"/>
</g>
<g fill="None" fill-opacity="0.0" stroke="#000000" stroke-opacity="0.00" stroke-width="0.3"><path d="
M 96.00 185.00 
C 93.99 183.13 89.44 183.70 87.00 185.00
C 88.89 186.72 94.04 186.52 96.00 185.00 Z"/>
</g>
<g fill="None" fill-opacity="0.0" stroke="#000000" stroke-opacity="0.00" stroke-width="0.3"><path d="
M 54.00 188.00 
C 52.28 189.57 52.50 194.36 54.00 196.00
C 53.47 192.91 58.28 189.92 54.00 188.00 Z"/>
</g>
<g fill="None" fill-opacity="0.0" stroke="#000000" stroke-opacity="0.00" stroke-width="0.3"><path d="
M 68.00 197.00 
C 69.72 195.11 69.52 189.96 68.00 188.00
C 63.76 190.16 68.48 193.63 68.00 197.00 Z"/>
</g>
<g fill="None" fill-opacity="0.0" stroke="#000000" stroke-opacity="0.00" stroke-width="0.3"><path d="
M 77.00 192.00 
C 82.75 190.05 75.31 185.77 77.00 192.00 Z"/>
</g>
<g fill="None" fill-opacity="0.0" stroke="#000000" stroke-opacity="0.00" stroke-width="0.3"><path d="
M 89.00 192.00 
C 82.01 193.60 84.78 199.19 88.00 203.00
C 90.27 200.32 88.38 195.50 89.00 192.00 Z"/>
</g>
<g fill="None" fill-opacity="0.0" stroke="#000000" stroke-opacity="0.00" stroke-width="0.3"><path d="
M 119.00 194.00 
C 117.18 192.78 115.47 191.32 113.00 192.00
C 112.72 194.67 117.66 196.09 119.00 194.00 Z"/>
</g>
<g fill="None" fill-opacity="0.0" stroke="#000000" stroke-opacity="0.00" stroke-width="0.3"><path d="
M 105.00 194.00 
C 103.11 192.28 97.96 192.48 96.00 194.00
C 97.89 195.72 103.04 195.52 105.00 194.00 Z"/>
</g>
<g fill="None" fill-opacity="0.0" stroke="#000000" stroke-opacity="0.00" stroke-width="0.3"><path d="
M 61.00 197.00 
C 57.61 199.75 64.14 200.80 61.00 197.00 Z"/>
</g>
<g fill="None" fill-opacity="0.0" stroke="#000000" stroke-opacity="0.00" stroke-width="0.3"><path d="
M 110.00 200.00 
C 105.58 197.15 106.28 203.57 110.00 200.00 Z"/>
</g>
<g fill="None" fill-opacity="0.0" stroke="#000000" stroke-opacity="0.00" stroke-width="0.3"><path d="
M 104.00 201.00 
C 101.30 201.55 95.01 199.23 96.00 204.00
C 98.70 203.45 104.99 205.77 104.00 201.00 Z"/>
</g>
<g fill="None" fill-opacity="0.0" stroke="#000000" stroke-opacity="0.00" stroke-width="0.3"><path d="
M 119.00 204.00 
C 116.75 201.94 113.76 201.76 111.00 201.00
C 110.78 204.92 116.80 206.39 119.00 204.00 Z"/>
</g>
<g fill="None" fill-opacity="0.0" stroke="#000000" stroke-opacity="0.00" stroke-width="0.3"><path d="
M 78.00 202.00 
C 74.56 205.60 78.92 210.00 83.00 210.00
C 82.51 206.80 79.67 204.71 78.00 202.00 Z"/>
</g>
<g fill="None" fill-opacity="0.0" stroke="#000000" stroke-opacity="0.00" stroke-width="0.3"><path d="
M 65.00 207.00 
C 60.05 203.65 56.27 207.94 54.00 212.00
C 56.43 212.50 55.98 216.61 59.00 216.00
C 58.70 211.72 64.10 210.16 65.00 207.00 Z"/>
</g>
<g fill="None" fill-opacity="0.0" stroke="#000000" stroke-opacity="0.00" stroke-width="0.3"><path d="
M 100.00 211.00 
C 88.88 208.06 94.18 221.59 93.00 228.00
C 103.82 230.53 98.99 217.17 100.00 211.00 Z"/>
</g>
<g fill="None" fill-opacity="0.0" stroke="#000000" stroke-opacity="0.00" stroke-width="0.3"><path d="
M 72.00 228.00 
C 79.79 230.62 83.85 220.24 78.22 215.78 C 70.25 211.95 69.24 223.31 72.00 228.00 Z"/>
</g>
<g fill="None" fill-opacity="0.0" stroke="#000000" stroke-opacity="0.00" stroke-width="0.3"><path d="
M 63.00 223.00 
C 59.77 228.87 63.93 236.05 65.00 242.00
C 68.95 235.37 64.04 229.51 63.00 223.00 Z"/>
</g>
<g fill="None" fill-opacity="0.0" stroke="#000000" stroke-opacity="0.00" stroke-width="0.3"><path d="
M 80.00 238.00 
C 67.18 235.83 80.12 249.88 80.00 238.00 Z"/>
</g>
<g fill="None" fill-opacity="0.0" stroke="#000000" stroke-opacity="0.00" stroke-width="0.3"><path d="
M 97.00 238.00 
C 84.26 237.36 100.51 248.94 97.00 238.00 Z"/>
</g>
<g fill="None" fill-opacity="0.0" stroke="#000000" stroke-opacity="0.00" stroke-width="0.3"><path d="
M 59.00 243.00 
C 54.16 243.37 60.10 248.61 59.00 243.00 Z"/>
</g>
<g fill="None" fill-opacity="0.0" stroke="#000000" stroke-opacity="0.00" stroke-width="0.3"><path d="
M 108.00 253.00 
C 108.18 249.74 108.25 244.25 104.00 244.00
C 103.52 252.15 90.68 245.32 92.00 253.00
C 97.33 253.00 102.67 253.00 108.00 253.00 Z"/>
</g>
<g fill="None" fill-opacity="0.0" stroke="#000000" stroke-opacity="0.00" stroke-width="0.3"><path d="
M 42.00 247.00 
C 37.68 245.89 34.31 248.05 36.33 252.67 C 40.85 254.67 43.23 251.31 42.00 247.00 Z"/>
</g>
<g fill="None" fill-opacity="0.0" stroke="#000000" stroke-opacity="0.00" stroke-width="0.3"><path d="
M 84.00 248.00 
C 80.71 250.24 72.48 246.52 74.00 253.00
C 78.16 252.69 86.10 254.97 84.00 248.00 Z"/>
</g>
<g fill="None" fill-opacity="0.0" stroke="#000000" stroke-opacity="0.00" stroke-width="0.3"><path d="
M 62.00 252.00 
C 53.68 250.79 55.89 254.91 62.00 252.00 Z"/>
</g>
<g fill="#000000" fill-opacity="0.00" stroke="None">
<path d="
M 0.00 318.00 
L 329.00 318.00
L 329.00 0.00
L 0.00 0.00
L 0.00 318.00
M 75.00 99.00 
C 86.98 83.37 107.29 106.39 94.00 118.00
C 100.34 119.18 106.39 115.59 114.00 117.00 C 125.07 118.58 114.05 127.73 107.00 124.00
C 106.67 130.37 120.36 123.39 117.00 133.00
C 113.67 133.00 110.33 133.00 107.00 133.00
C 106.66 139.71 123.61 131.90 118.22 142.22 C 111.32 144.00 103.32 142.51 96.00 143.00
C 96.25 149.01 87.93 146.45 84.00 147.00
C 83.34 152.30 90.85 149.14 94.00 150.00
C 96.08 157.01 88.56 156.31 84.00 156.00
C 84.65 161.50 82.68 168.33 85.00 173.00
C 85.76 165.89 90.08 161.46 97.03 163.02 C 103.17 164.59 117.43 158.51 116.00 169.00
C 105.81 166.67 111.42 180.15 110.00 186.00
C 117.64 181.31 133.88 193.58 120.00 195.00
C 134.86 201.71 119.83 217.81 108.00 210.00
C 105.34 216.82 108.60 225.15 106.00 232.00
C 108.64 233.78 111.01 236.73 111.00 240.00
C 112.23 235.77 122.09 225.83 123.06 234.08 C 120.73 240.35 114.38 245.36 116.00 253.00
C 131.00 253.00 146.00 253.00 161.00 253.00 C 174.91 251.42 191.01 256.78 203.00 249.00
C 203.02 244.27 204.66 239.92 204.00 235.00
C 193.00 235.00 182.00 235.00 171.00 235.00 C 162.27 233.68 143.50 240.22 147.00 225.00 C 147.00 191.00 147.00 157.00 147.00 123.00 C 144.38 108.29 163.55 115.79 172.00 114.00 C 205.67 114.00 239.33 114.00 273.00 114.00 C 281.51 116.29 300.84 107.78 299.00 122.00 C 299.00 156.00 299.00 190.00 299.00 224.00 C 303.18 239.48 285.11 234.26 276.00 235.00 C 264.67 235.00 253.33 235.00 242.00 235.00
C 241.25 239.95 243.39 244.13 243.00 249.00
C 263.76 258.87 291.19 248.46 313.23 254.77 C 337.68 263.38 323.05 295.82 327.00 316.00
C 322.67 316.00 318.33 316.00 314.00 316.00
C 311.64 299.15 322.91 266.36 296.98 267.02 C 208.98 266.97 120.99 267.02 33.00 267.00 C 6.21 265.38 17.13 298.84 15.00 316.00
C 10.67 316.00 6.33 316.00 2.00 316.00
C 2.00 301.33 2.00 286.67 2.00 272.00 C 1.62 258.64 16.00 251.30 28.00 253.00
C 28.00 247.00 28.00 241.00 28.00 235.00 C 29.75 228.09 39.35 233.95 36.00 240.00
C 44.58 243.40 39.35 232.72 45.03 232.03 C 52.82 230.14 48.26 239.98 51.00 243.00
C 52.40 236.39 56.69 228.67 52.08 221.92 C 48.51 216.35 44.91 210.25 44.00 204.00
C 44.90 206.90 41.08 208.06 42.00 211.00
C 36.95 212.38 34.55 209.44 34.00 205.00
C 33.37 209.45 31.74 212.51 26.00 211.00
C 26.00 202.67 26.00 194.33 26.00 186.00
C 29.00 186.00 32.00 186.00 35.00 186.00
C 36.26 189.67 36.69 195.38 40.00 197.00
C 41.71 194.97 40.31 192.04 42.00 190.00
C 35.84 185.62 37.09 176.31 34.22 169.78 C 29.64 157.77 46.76 164.33 42.00 174.00
C 46.52 173.11 42.05 163.17 48.03 163.03 C 54.69 161.53 53.81 169.02 55.00 173.00
C 57.98 170.59 56.37 165.88 59.00 163.00
C 52.80 158.46 54.73 148.72 58.00 143.00
C 50.63 145.40 54.48 136.96 52.00 134.00
C 52.11 145.09 39.64 145.29 40.00 134.00
C 37.92 136.10 39.50 140.15 39.00 143.00
C 29.44 145.67 32.32 134.69 32.00 129.00 C 30.84 122.00 31.88 114.15 41.00 117.00
C 43.22 121.21 44.26 125.56 46.00 130.00
C 48.88 120.60 55.51 113.43 53.00 102.00 C 50.41 89.12 69.51 93.57 75.00 99.00 Z"/>
</g>
<g fill="#FEFEFE" fill-opacity="1.00" stroke="None">
<path d="
M 75.00 99.00 
C 69.51 93.57 50.41 89.12 53.00 102.00 C 55.51 113.43 48.88 120.60 46.00 130.00
C 44.26 125.56 43.22 121.21 41.00 117.00
C 31.88 114.15 30.84 122.00 32.00 129.00 C 32.32 134.69 29.44 145.67 39.00 143.00
C 39.50 140.15 37.92 136.10 40.00 134.00
C 39.64 145.29 52.11 145.09 52.00 134.00
C 54.48 136.96 50.63 145.40 58.00 143.00
C 54.73 148.72 52.80 158.46 59.00 163.00
C 56.37 165.88 57.98 170.59 55.00 173.00
C 53.81 169.02 54.69 161.53 48.03 163.03 C 42.05 163.17 46.52 173.11 42.00 174.00
C 46.76 164.33 29.64 157.77 34.22 169.78 C 37.09 176.31 35.84 185.62 42.00 190.00
C 40.31 192.04 41.71 194.97 40.00 197.00
C 36.69 195.38 36.26 189.67 35.00 186.00
C 32.00 186.00 29.00 186.00 26.00 186.00
C 26.00 194.33 26.00 202.67 26.00 211.00
C 31.74 212.51 33.37 209.45 34.00 205.00
C 34.55 209.44 36.95 212.38 42.00 211.00
C 41.08 208.06 44.90 206.90 44.00 204.00
C 44.91 210.25 48.51 216.35 52.08 221.92 C 56.69 228.67 52.40 236.39 51.00 243.00
C 48.26 239.98 52.82 230.14 45.03 232.03 C 39.35 232.72 44.58 243.40 36.00 240.00
C 39.35 233.95 29.75 228.09 28.00 235.00 C 28.00 241.00 28.00 247.00 28.00 253.00
C 16.00 251.30 1.62 258.64 2.00 272.00 C 2.00 286.67 2.00 301.33 2.00 316.00
C 6.33 316.00 10.67 316.00 15.00 316.00
C 17.13 298.84 6.21 265.38 33.00 267.00 C 120.99 267.02 208.98 266.97 296.98 267.02 C 322.91 266.36 311.64 299.15 314.00 316.00
C 318.33 316.00 322.67 316.00 327.00 316.00
C 323.05 295.82 337.68 263.38 313.23 254.77 C 291.19 248.46 263.76 258.87 243.00 249.00
C 243.39 244.13 241.25 239.95 242.00 235.00
C 253.33 235.00 264.67 235.00 276.00 235.00 C 285.11 234.26 303.18 239.48 299.00 224.00 C 299.00 190.00 299.00 156.00 299.00 122.00 C 300.84 107.78 281.51 116.29 273.00 114.00 C 239.33 114.00 205.67 114.00 172.00 114.00 C 163.55 115.79 144.38 108.29 147.00 123.00 C 147.00 157.00 147.00 191.00 147.00 225.00 C 143.50 240.22 162.27 233.68 171.00 235.00 C 182.00 235.00 193.00 235.00 204.00 235.00
C 204.66 239.92 203.02 244.27 203.00 249.00
C 191.01 256.78 174.91 251.42 161.00 253.00 C 146.00 253.00 131.00 253.00 116.00 253.00
C 114.38 245.36 120.73 240.35 123.06 234.08 C 122.09 225.83 112.23 235.77 111.00 240.00
C 111.01 236.73 108.64 233.78 106.00 232.00
C 108.60 225.15 105.34 216.82 108.00 210.00
C 119.83 217.81 134.86 201.71 120.00 195.00
C 133.88 193.58 117.64 181.31 110.00 186.00
C 111.42 180.15 105.81 166.67 116.00 169.00
C 117.43 158.51 103.17 164.59 97.03 163.02 C 90.08 161.46 85.76 165.89 85.00 173.00
C 82.68 168.33 84.65 161.50 84.00 156.00
C 88.56 156.31 96.08 157.01 94.00 150.00
C 90.85 149.14 83.34 152.30 84.00 147.00
C 87.93 146.45 96.25 149.01 96.00 143.00
C 103.32 142.51 111.32 144.00 118.22 142.22 C 123.61 131.90 106.66 139.71 107.00 133.00
C 110.33 133.00 113.67 133.00 117.00 133.00
C 120.36 123.39 106.67 130.37 107.00 124.00
C 114.05 127.73 125.07 118.58 114.00 117.00 C 106.39 115.59 100.34 119.18 94.00 118.00
C 107.29 106.39 86.98 83.37 75.00 99.00
M 60.00 114.00 
C 60.00 109.67 60.00 105.33 60.00 101.00
C 71.12 98.54 71.68 117.07 60.00 114.00
M 88.00 101.00 
C 92.02 105.16 90.32 117.30 82.78 113.22 C 77.13 108.88 80.37 99.10 88.00 101.00
M 77.00 119.00 
C 70.65 117.68 76.10 113.56 77.00 119.00
M 292.00 120.00 
C 292.00 149.33 292.00 178.67 292.00 208.00
C 246.00 208.00 200.00 208.00 154.00 208.00
C 154.00 178.67 154.00 149.33 154.00 120.00
C 200.00 120.00 246.00 120.00 292.00 120.00
M 66.00 124.00 
C 73.99 120.65 77.34 133.39 71.30 136.30 C 63.81 139.24 63.11 128.40 66.00 124.00
M 93.00 124.00 
C 91.93 133.91 81.28 121.66 93.00 124.00
M 94.00 141.00 
C 88.41 142.48 85.59 139.58 87.00 134.00
C 92.11 133.39 93.20 136.90 94.00 141.00
M 71.00 147.00 
C 73.90 151.87 71.58 163.65 64.26 158.74 C 59.54 153.72 63.00 144.05 71.00 147.00
M 77.00 163.00 
C 77.00 166.00 77.00 169.00 77.00 172.00
C 72.18 172.73 67.12 172.23 69.00 166.00
C 72.20 166.67 74.60 164.59 77.00 163.00
M 101.00 179.00 
C 101.09 175.35 98.23 172.60 98.00 169.00
C 103.81 167.19 102.55 176.48 101.00 179.00
M 50.00 178.00 
C 49.78 181.29 53.30 187.35 47.00 186.00
C 49.23 183.78 46.35 179.15 50.00 178.00
M 77.00 178.00 
C 77.00 181.00 77.00 184.00 77.00 187.00
C 74.69 185.45 71.32 185.62 69.00 187.00
C 69.00 184.00 69.00 181.00 69.00 178.00
C 71.67 178.00 74.33 178.00 77.00 178.00
M 62.00 182.00 
C 63.45 188.19 57.23 184.37 62.00 182.00
M 96.00 185.00 
C 94.04 186.52 88.89 186.72 87.00 185.00
C 89.44 183.70 93.99 183.13 96.00 185.00
M 54.00 188.00 
C 58.28 189.92 53.47 192.91 54.00 196.00
C 52.50 194.36 52.28 189.57 54.00 188.00
M 68.00 197.00 
C 68.48 193.63 63.76 190.16 68.00 188.00
C 69.52 189.96 69.72 195.11 68.00 197.00
M 77.00 192.00 
C 75.31 185.77 82.75 190.05 77.00 192.00
M 89.00 192.00 
C 88.38 195.50 90.27 200.32 88.00 203.00
C 84.78 199.19 82.01 193.60 89.00 192.00
M 119.00 194.00 
C 117.66 196.09 112.72 194.67 113.00 192.00
C 115.47 191.32 117.18 192.78 119.00 194.00
M 105.00 194.00 
C 103.04 195.52 97.89 195.72 96.00 194.00
C 97.96 192.48 103.11 192.28 105.00 194.00
M 61.00 197.00 
C 64.14 200.80 57.61 199.75 61.00 197.00
M 110.00 200.00 
C 106.28 203.57 105.58 197.15 110.00 200.00
M 104.00 201.00 
C 104.99 205.77 98.70 203.45 96.00 204.00
C 95.01 199.23 101.30 201.55 104.00 201.00
M 119.00 204.00 
C 116.80 206.39 110.78 204.92 111.00 201.00
C 113.76 201.76 116.75 201.94 119.00 204.00
M 78.00 202.00 
C 79.67 204.71 82.51 206.80 83.00 210.00
C 78.92 210.00 74.56 205.60 78.00 202.00
M 65.00 207.00 
C 64.10 210.16 58.70 211.72 59.00 216.00
C 55.98 216.61 56.43 212.50 54.00 212.00
C 56.27 207.94 60.05 203.65 65.00 207.00
M 100.00 211.00 
C 98.99 217.17 103.82 230.53 93.00 228.00
C 94.18 221.59 88.88 208.06 100.00 211.00
M 72.00 228.00 
C 69.24 223.31 70.25 211.95 78.22 215.78 C 83.85 220.24 79.79 230.62 72.00 228.00
M 63.00 223.00 
C 64.04 229.51 68.95 235.37 65.00 242.00
C 63.93 236.05 59.77 228.87 63.00 223.00
M 80.00 238.00 
C 80.12 249.88 67.18 235.83 80.00 238.00
M 97.00 238.00 
C 100.51 248.94 84.26 237.36 97.00 238.00
M 59.00 243.00 
C 60.10 248.61 54.16 243.37 59.00 243.00
M 108.00 253.00 
C 102.67 253.00 97.33 253.00 92.00 253.00
C 90.68 245.32 103.52 252.15 104.00 244.00
C 108.25 244.25 108.18 249.74 108.00 253.00
M 42.00 247.00 
C 43.23 251.31 40.85 254.67 36.33 252.67 C 34.31 248.05 37.68 245.89 42.00 247.00
M 84.00 248.00 
C 86.10 254.97 78.16 252.69 74.00 253.00
C 72.48 246.52 80.71 250.24 84.00 248.00
M 62.00 252.00 
C 55.89 254.91 53.68 250.79 62.00 252.00 Z"/>
</g>
<g fill="#000000" fill-opacity="0.00" stroke="None">
<path d="
M 60.00 114.00 
C 71.68 117.07 71.12 98.54 60.00 101.00
C 60.00 105.33 60.00 109.67 60.00 114.00 Z"/>
</g>
<g fill="#000000" fill-opacity="0.00" stroke="None">
<path d="
M 88.00 101.00 
C 80.37 99.10 77.13 108.88 82.78 113.22 C 90.32 117.30 92.02 105.16 88.00 101.00 Z"/>
</g>
<g fill="#090909" fill-opacity="0.14" stroke="None">
<path d="
M 77.00 119.00 
C 76.10 113.56 70.65 117.68 77.00 119.00 Z"/>
</g>
<g fill="#000000" fill-opacity="0.00" stroke="None">
<path d="
M 292.00 120.00 
C 246.00 120.00 200.00 120.00 154.00 120.00
C 154.00 149.33 154.00 178.67 154.00 208.00
C 200.00 208.00 246.00 208.00 292.00 208.00
C 292.00 178.67 292.00 149.33 292.00 120.00 Z"/>
</g>
<g fill="#000000" fill-opacity="0.00" stroke="None">
<path d="
M 66.00 124.00 
C 63.11 128.40 63.81 139.24 71.30 136.30 C 77.34 133.39 73.99 120.65 66.00 124.00 Z"/>
</g>
<g fill="#000000" fill-opacity="0.00" stroke="None">
<path d="
M 93.00 124.00 
C 81.28 121.66 91.93 133.91 93.00 124.00 Z"/>
</g>
<g fill="#000000" fill-opacity="0.00" stroke="None">
<path d="
M 94.00 141.00 
C 93.20 136.90 92.11 133.39 87.00 134.00
C 85.59 139.58 88.41 142.48 94.00 141.00 Z"/>
</g>
<g fill="#000000" fill-opacity="0.00" stroke="None">
<path d="
M 71.00 147.00 
C 63.00 144.05 59.54 153.72 64.26 158.74 C 71.58 163.65 73.90 151.87 71.00 147.00 Z"/>
</g>
<g fill="#000000" fill-opacity="0.00" stroke="None">
<path d="
M 77.00 163.00 
C 74.60 164.59 72.20 166.67 69.00 166.00
C 67.12 172.23 72.18 172.73 77.00 172.00
C 77.00 169.00 77.00 166.00 77.00 163.00 Z"/>
</g>
<g fill="#000000" fill-opacity="0.00" stroke="None">
<path d="
M 101.00 179.00 
C 102.55 176.48 103.81 167.19 98.00 169.00
C 98.23 172.60 101.09 175.35 101.00 179.00 Z"/>
</g>
<g fill="#000000" fill-opacity="0.00" stroke="None">
<path d="
M 50.00 178.00 
C 46.35 179.15 49.23 183.78 47.00 186.00
C 53.30 187.35 49.78 181.29 50.00 178.00 Z"/>
</g>
<g fill="#000000" fill-opacity="0.00" stroke="None">
<path d="
M 77.00 178.00 
C 74.33 178.00 71.67 178.00 69.00 178.00
C 69.00 181.00 69.00 184.00 69.00 187.00
C 71.32 185.62 74.69 185.45 77.00 187.00
C 77.00 184.00 77.00 181.00 77.00 178.00 Z"/>
</g>
<g fill="#000000" fill-opacity="0.00" stroke="None">
<path d="
M 62.00 182.00 
C 57.23 184.37 63.45 188.19 62.00 182.00 Z"/>
</g>
<g fill="#000000" fill-opacity="0.00" stroke="None">
<path d="
M 96.00 185.00 
C 93.99 183.13 89.44 183.70 87.00 185.00
C 88.89 186.72 94.04 186.52 96.00 185.00 Z"/>
</g>
<g fill="#000000" fill-opacity="0.00" stroke="None">
<path d="
M 54.00 188.00 
C 52.28 189.57 52.50 194.36 54.00 196.00
C 53.47 192.91 58.28 189.92 54.00 188.00 Z"/>
</g>
<g fill="#000000" fill-opacity="0.00" stroke="None">
<path d="
M 68.00 197.00 
C 69.72 195.11 69.52 189.96 68.00 188.00
C 63.76 190.16 68.48 193.63 68.00 197.00 Z"/>
</g>
<g fill="#000000" fill-opacity="0.00" stroke="None">
<path d="
M 77.00 192.00 
C 82.75 190.05 75.31 185.77 77.00 192.00 Z"/>
</g>
<g fill="#000000" fill-opacity="0.00" stroke="None">
<path d="
M 89.00 192.00 
C 82.01 193.60 84.78 199.19 88.00 203.00
C 90.27 200.32 88.38 195.50 89.00 192.00 Z"/>
</g>
<g fill="#000000" fill-opacity="0.00" stroke="None">
<path d="
M 119.00 194.00 
C 117.18 192.78 115.47 191.32 113.00 192.00
C 112.72 194.67 117.66 196.09 119.00 194.00 Z"/>
</g>
<g fill="#000000" fill-opacity="0.00" stroke="None">
<path d="
M 105.00 194.00 
C 103.11 192.28 97.96 192.48 96.00 194.00
C 97.89 195.72 103.04 195.52 105.00 194.00 Z"/>
</g>
<g fill="#000000" fill-opacity="0.00" stroke="None">
<path d="
M 61.00 197.00 
C 57.61 199.75 64.14 200.80 61.00 197.00 Z"/>
</g>
<g fill="#000000" fill-opacity="0.00" stroke="None">
<path d="
M 110.00 200.00 
C 105.58 197.15 106.28 203.57 110.00 200.00 Z"/>
</g>
<g fill="#000000" fill-opacity="0.00" stroke="None">
<path d="
M 104.00 201.00 
C 101.30 201.55 95.01 199.23 96.00 204.00
C 98.70 203.45 104.99 205.77 104.00 201.00 Z"/>
</g>
<g fill="#000000" fill-opacity="0.00" stroke="None">
<path d="
M 119.00 204.00 
C 116.75 201.94 113.76 201.76 111.00 201.00
C 110.78 204.92 116.80 206.39 119.00 204.00 Z"/>
</g>
<g fill="#000000" fill-opacity="0.00" stroke="None">
<path d="
M 78.00 202.00 
C 74.56 205.60 78.92 210.00 83.00 210.00
C 82.51 206.80 79.67 204.71 78.00 202.00 Z"/>
</g>
<g fill="#000000" fill-opacity="0.00" stroke="None">
<path d="
M 65.00 207.00 
C 60.05 203.65 56.27 207.94 54.00 212.00
C 56.43 212.50 55.98 216.61 59.00 216.00
C 58.70 211.72 64.10 210.16 65.00 207.00 Z"/>
</g>
<g fill="#000000" fill-opacity="0.00" stroke="None">
<path d="
M 100.00 211.00 
C 88.88 208.06 94.18 221.59 93.00 228.00
C 103.82 230.53 98.99 217.17 100.00 211.00 Z"/>
</g>
<g fill="#000000" fill-opacity="0.00" stroke="None">
<path d="
M 72.00 228.00 
C 79.79 230.62 83.85 220.24 78.22 215.78 C 70.25 211.95 69.24 223.31 72.00 228.00 Z"/>
</g>
<g fill="#000000" fill-opacity="0.00" stroke="None">
<path d="
M 63.00 223.00 
C 59.77 228.87 63.93 236.05 65.00 242.00
C 68.95 235.37 64.04 229.51 63.00 223.00 Z"/>
</g>
<g fill="#000000" fill-opacity="0.00" stroke="None">
<path d="
M 80.00 238.00 
C 67.18 235.83 80.12 249.88 80.00 238.00 Z"/>
</g>
<g fill="#000000" fill-opacity="0.00" stroke="None">
<path d="
M 97.00 238.00 
C 84.26 237.36 100.51 248.94 97.00 238.00 Z"/>
</g>
<g fill="#000000" fill-opacity="0.00" stroke="None">
<path d="
M 59.00 243.00 
C 54.16 243.37 60.10 248.61 59.00 243.00 Z"/>
</g>
<g fill="#000000" fill-opacity="0.00" stroke="None">
<path d="
M 108.00 253.00 
C 108.18 249.74 108.25 244.25 104.00 244.00
C 103.52 252.15 90.68 245.32 92.00 253.00
C 97.33 253.00 102.67 253.00 108.00 253.00 Z"/>
</g>
<g fill="#000000" fill-opacity="0.00" stroke="None">
<path d="
M 42.00 247.00 
C 37.68 245.89 34.31 248.05 36.33 252.67 C 40.85 254.67 43.23 251.31 42.00 247.00 Z"/>
</g>
<g fill="#000000" fill-opacity="0.00" stroke="None">
<path d="
M 84.00 248.00 
C 80.71 250.24 72.48 246.52 74.00 253.00
C 78.16 252.69 86.10 254.97 84.00 248.00 Z"/>
</g>
<g fill="#000000" fill-opacity="0.00" stroke="None">
<path d="
M 62.00 252.00 
C 53.68 250.79 55.89 254.91 62.00 252.00 Z"/>
</g>
</svg>