<svg xmlns="http://www.w3.org/2000/svg" xmlns:v="https://svgstorm.com"
viewBox = "0 0 329 318"
width="329"
height="318">
<g fill="None" fill-opacity="0.0" stroke="#000000" stroke-opacity="0.00" stroke-width="0.3"><path d="
M 0.00 318.00 
L 329.00 318.00
L 329.00 0.00
L 0.00 0.00
L 0.00 318.00
M 179.00 246.00 
C 184.33 246.00 189.67 246.00 195.00 246.00
C 195.49 248.73 194.70 251.02 193.00 253.00
C 205.67 253.00 218.33 253.00 231.00 253.00
C 229.50 240.74 233.51 230.00 233.00 218.00 C 231.22 204.67 245.02 202.39 255.00 205.00
C 259.46 195.88 241.71 191.80 250.23 184.23 C 257.02 186.18 264.66 193.37 269.08 183.08 C 275.29 187.82 268.23 199.08 266.75 205.75 C 261.61 213.04 265.64 223.13 262.01 231.01 C 263.30 238.20 260.85 252.02 270.00 253.00 C 287.68 255.25 309.66 247.01 323.25 260.75 C 331.51 276.98 324.90 297.47 327.00 316.00
C 322.67 316.00 318.33 316.00 314.00 316.00
C 311.64 299.15 322.91 266.36 296.98 267.02 C 208.98 266.97 120.99 267.02 33.00 267.00 C 6.21 265.38 17.13 298.84 15.00 316.00
C 10.67 316.00 6.33 316.00 2.00 316.00
C 3.62 298.16 -1.45 278.40 4.92 261.92 C 16.41 247.28 37.58 254.90 54.00 253.00
C 48.88 242.72 63.01 246.68 69.00 246.00
C 69.00 232.00 69.00 218.00 69.00 204.00 C 70.27 192.86 63.01 170.23 82.00 175.00 C 110.00 175.00 138.00 175.00 166.00 175.00 C 185.03 170.31 177.71 192.74 179.00 204.00 C 179.00 218.00 179.00 232.00 179.00 246.00 Z"/>
</g>
<g fill="None" fill-opacity="0.0" stroke="#FEFEFE" stroke-opacity="1.00" stroke-width="0.3"><path d="
M 179.00 246.00 
C 179.00 232.00 179.00 218.00 179.00 204.00 C 177.71 192.74 185.03 170.31 166.00 175.00 C 138.00 175.00 110.00 175.00 82.00 175.00 C 63.01 170.23 70.27 192.86 69.00 204.00 C 69.00 218.00 69.00 232.00 69.00 246.00
C 63.01 246.68 48.88 242.72 54.00 253.00
C 37.58 254.90 16.41 247.28 4.92 261.92 C -1.45 278.40 3.62 298.16 2.00 316.00
C 6.33 316.00 10.67 316.00 15.00 316.00
C 17.13 298.84 6.21 265.38 33.00 267.00 C 120.99 267.02 208.98 266.97 296.98 267.02 C 322.91 266.36 311.64 299.15 314.00 316.00
C 318.33 316.00 322.67 316.00 327.00 316.00
C 324.90 297.47 331.51 276.98 323.25 260.75 C 309.66 247.01 287.68 255.25 270.00 253.00 C 260.85 252.02 263.30 238.20 262.01 231.01 C 265.64 223.13 261.61 213.04 266.75 205.75 C 268.23 199.08 275.29 187.82 269.08 183.08 C 264.66 193.37 257.02 186.18 250.23 184.23 C 241.71 191.80 259.46 195.88 255.00 205.00
C 245.02 202.39 231.22 204.67 233.00 218.00 C 233.51 230.00 229.50 240.74 231.00 253.00
C 218.33 253.00 205.67 253.00 193.00 253.00
C 194.70 251.02 195.49 248.73 195.00 246.00
C 189.67 246.00 184.33 246.00 179.00 246.00
M 172.00 182.00 
C 172.00 202.00 172.00 222.00 172.00 242.00
C 140.00 242.00 108.00 242.00 76.00 242.00
C 76.00 222.00 76.00 202.00 76.00 182.00
C 108.00 182.00 140.00 182.00 172.00 182.00
M 258.00 253.00 
C 251.66 249.70 253.65 237.16 254.00 230.00
C 254.96 237.40 257.55 245.11 258.00 253.00
M 240.00 232.00 
C 241.73 238.69 242.55 245.68 242.00 253.00
C 232.52 253.51 237.47 237.11 240.00 232.00 Z"/>
</g>
<g fill="None" fill-opacity="0.0" stroke="#000000" stroke-opacity="0.00" stroke-width="0.3"><path d="
M 172.00 182.00 
C 140.00 182.00 108.00 182.00 76.00 182.00
C 76.00 202.00 76.00 222.00 76.00 242.00
C 108.00 242.00 140.00 242.00 172.00 242.00
C 172.00 222.00 172.00 202.00 172.00 182.00 Z"/>
</g>
<g fill="None" fill-opacity="0.0" stroke="#000000" stroke-opacity="0.00" stroke-width="0.3"><path d="
M 258.00 253.00 
C 257.55 245.11 254.96 237.40 254.00 230.00
C 253.65 237.16 251.66 249.70 258.00 253.00 Z"/>
</g>
<g fill="None" fill-opacity="0.0" stroke="#000000" stroke-opacity="0.00" stroke-width="0.3"><path d="
M 240.00 232.00 
C 237.47 237.11 232.52 253.51 242.00 253.00
C 242.55 245.68 241.73 238.69 240.00 232.00 Z"/>
</g>
<g fill="#000000" fill-opacity="0.00" stroke="None">
<path d="
M 0.00 318.00 
L 329.00 318.00
L 329.00 0.00
L 0.00 0.00
L 0.00 318.00
M 179.00 246.00 
C 184.33 246.00 189.67 246.00 195.00 246.00
C 195.49 248.73 194.70 251.02 193.00 253.00
C 205.67 253.00 218.33 253.00 231.00 253.00
C 229.50 240.74 233.51 230.00 233.00 218.00 C 231.22 204.67 245.02 202.39 255.00 205.00
C 259.46 195.88 241.71 191.80 250.23 184.23 C 257.02 186.18 264.66 193.37 269.08 183.08 C 275.29 187.82 268.23 199.08 266.75 205.75 C 261.61 213.04 265.64 223.13 262.01 231.01 C 263.30 238.20 260.85 252.02 270.00 253.00 C 287.68 255.25 309.66 247.01 323.25 260.75 C 331.51 276.98 324.90 297.47 327.00 316.00
C 322.67 316.00 318.33 316.00 314.00 316.00
C 311.64 299.15 322.91 266.36 296.98 267.02 C 208.98 266.97 120.99 267.02 33.00 267.00 C 6.21 265.38 17.13 298.84 15.00 316.00
C 10.67 316.00 6.33 316.00 2.00 316.00
C 3.62 298.16 -1.45 278.40 4.92 261.92 C 16.41 247.28 37.58 254.90 54.00 253.00
C 48.88 242.72 63.01 246.68 69.00 246.00
C 69.00 232.00 69.00 218.00 69.00 204.00 C 70.27 192.86 63.01 170.23 82.00 175.00 C 110.00 175.00 138.00 175.00 166.00 175.00 C 185.03 170.31 177.71 192.74 179.00 204.00 C 179.00 218.00 179.00 232.00 179.00 246.00 Z"/>
</g>
<g fill="#FEFEFE" fill-opacity="1.00" stroke="None">
<path d="
M 179.00 246.00 
C 179.00 232.00 179.00 218.00 179.00 204.00 C 177.71 192.74 185.03 170.31 166.00 175.00 C 138.00 175.00 110.00 175.00 82.00 175.00 C 63.01 170.23 70.27 192.86 69.00 204.00 C 69.00 218.00 69.00 232.00 69.00 246.00
C 63.01 246.68 48.88 242.72 54.00 253.00
C 37.58 254.90 16.41 247.28 4.92 261.92 C -1.45 278.40 3.62 298.16 2.00 316.00
C 6.33 316.00 10.67 316.00 15.00 316.00
C 17.13 298.84 6.21 265.38 33.00 267.00 C 120.99 267.02 208.98 266.97 296.98 267.02 C 322.91 266.36 311.64 299.15 314.00 316.00
C 318.33 316.00 322.67 316.00 327.00 316.00
C 324.90 297.47 331.51 276.98 323.25 260.75 C 309.66 247.01 287.68 255.25 270.00 253.00 C 260.85 252.02 263.30 238.20 262.01 231.01 C 265.64 223.13 261.61 213.04 266.75 205.75 C 268.23 199.08 275.29 187.82 269.08 183.08 C 264.66 193.37 257.02 186.18 250.23 184.23 C 241.71 191.80 259.46 195.88 255.00 205.00
C 245.02 202.39 231.22 204.67 233.00 218.00 C 233.51 230.00 229.50 240.74 231.00 253.00
C 218.33 253.00 205.67 253.00 193.00 253.00
C 194.70 251.02 195.49 248.73 195.00 246.00
C 189.67 246.00 184.33 246.00 179.00 246.00
M 172.00 182.00 
C 172.00 202.00 172.00 222.00 172.00 242.00
C 140.00 242.00 108.00 242.00 76.00 242.00
C 76.00 222.00 76.00 202.00 76.00 182.00
C 108.00 182.00 140.00 182.00 172.00 182.00
M 258.00 253.00 
C 251.66 249.70 253.65 237.16 254.00 230.00
C 254.96 237.40 257.55 245.11 258.00 253.00
M 240.00 232.00 
C 241.73 238.69 242.55 245.68 242.00 253.00
C 232.52 253.51 237.47 237.11 240.00 232.00 Z"/>
</g>
<g fill="#000000" fill-opacity="0.00" stroke="None">
<path d="
M 172.00 182.00 
C 140.00 182.00 108.00 182.00 76.00 182.00
C 76.00 202.00 76.00 222.00 76.00 242.00
C 108.00 242.00 140.00 242.00 172.00 242.00
C 172.00 222.00 172.00 202.00 172.00 182.00 Z"/>
</g>
<g fill="#000000" fill-opacity="0.00" stroke="None">
<path d="
M 258.00 253.00 
C 257.55 245.11 254.96 237.40 254.00 230.00
C 253.65 237.16 251.66 249.70 258.00 253.00 Z"/>
</g>
<g fill="#000000" fill-opacity="0.00" stroke="None">
<path d="
M 240.00 232.00 
C 237.47 237.11 232.52 253.51 242.00 253.00
C 242.55 245.68 241.73 238.69 240.00 232.00 Z"/>
</g>
</svg>