<svg xmlns="http://www.w3.org/2000/svg" xmlns:v="https://svgstorm.com"
viewBox = "0 0 329 318"
width="329"
height="318">
<g fill="None" fill-opacity="0.0" stroke="#000000" stroke-opacity="0.00" stroke-width="0.3"><path d="
M 0.00 318.00 
L 329.00 318.00
L 329.00 0.00
L 0.00 0.00
L 0.00 318.00
M 277.00 129.00 
C 274.68 164.50 276.66 201.08 276.00 237.00
C 259.42 238.66 242.96 240.79 226.00 241.00 C 219.08 242.27 205.24 237.76 204.00 246.00
C 224.43 245.30 241.41 254.98 262.00 253.00 C 281.53 255.35 304.65 247.47 321.25 258.75 C 333.30 274.34 324.18 296.87 327.00 316.00
C 322.67 316.00 318.33 316.00 314.00 316.00
C 311.64 299.15 322.91 266.36 296.98 267.02 C 208.98 266.97 120.99 267.02 33.00 267.00 C 6.21 265.38 17.13 298.84 15.00 316.00
C 10.67 316.00 6.33 316.00 2.00 316.00
C 2.84 299.21 0.30 281.50 3.31 265.31 C 9.86 249.28 29.73 253.46 44.00 253.00
C 44.00 244.00 44.00 235.00 44.00 226.00 C 45.38 217.94 37.83 211.46 40.00 204.00
C 43.02 204.71 44.73 204.92 44.00 201.00
C 50.81 204.07 56.89 193.75 62.00 201.00
C 65.13 201.06 65.19 196.49 69.00 198.00
C 68.21 202.72 74.27 202.82 78.00 202.00
C 86.68 210.21 71.25 216.24 75.00 225.00
C 93.95 219.96 92.86 254.98 75.00 252.00
C 94.43 254.33 115.82 252.34 136.00 253.00 C 155.68 254.96 171.09 243.84 191.00 246.00
C 188.76 237.21 173.07 242.52 165.00 241.00 C 155.64 238.68 144.69 241.99 135.78 238.22 C 124.56 239.84 115.10 235.95 119.00 223.00 C 118.35 191.75 120.32 159.83 118.00 129.00
C 170.09 125.84 224.91 125.84 277.00 129.00 Z"/>
</g>
<g fill="None" fill-opacity="0.0" stroke="#FFFFFF" stroke-opacity="1.00" stroke-width="0.3"><path d="
M 277.00 129.00 
C 224.91 125.84 170.09 125.84 118.00 129.00
C 120.32 159.83 118.35 191.75 119.00 223.00 C 115.10 235.95 124.56 239.84 135.78 238.22 C 144.69 241.99 155.64 238.68 165.00 241.00 C 173.07 242.52 188.76 237.21 191.00 246.00
C 171.09 243.84 155.68 254.96 136.00 253.00 C 115.82 252.34 94.43 254.33 75.00 252.00
C 92.86 254.98 93.95 219.96 75.00 225.00
C 71.25 216.24 86.68 210.21 78.00 202.00
C 74.27 202.82 68.21 202.72 69.00 198.00
C 65.19 196.49 65.13 201.06 62.00 201.00
C 56.89 193.75 50.81 204.07 44.00 201.00
C 44.73 204.92 43.02 204.71 40.00 204.00
C 37.83 211.46 45.38 217.94 44.00 226.00 C 44.00 235.00 44.00 244.00 44.00 253.00
C 29.73 253.46 9.86 249.28 3.31 265.31 C 0.30 281.50 2.84 299.21 2.00 316.00
C 6.33 316.00 10.67 316.00 15.00 316.00
C 17.13 298.84 6.21 265.38 33.00 267.00 C 120.99 267.02 208.98 266.97 296.98 267.02 C 322.91 266.36 311.64 299.15 314.00 316.00
C 318.33 316.00 322.67 316.00 327.00 316.00
C 324.18 296.87 333.30 274.34 321.25 258.75 C 304.65 247.47 281.53 255.35 262.00 253.00 C 241.41 254.98 224.43 245.30 204.00 246.00
C 205.24 237.76 219.08 242.27 226.00 241.00 C 242.96 240.79 259.42 238.66 276.00 237.00
C 276.66 201.08 274.68 164.50 277.00 129.00
M 268.00 137.00 
C 268.00 166.67 268.00 196.33 268.00 226.00
C 221.00 226.00 174.00 226.00 127.00 226.00
C 127.00 196.33 127.00 166.67 127.00 137.00
C 174.00 137.00 221.00 137.00 268.00 137.00
M 62.00 227.00 
C 58.72 227.80 56.11 230.06 53.00 231.00
C 50.60 224.90 59.04 224.89 62.00 227.00
M 75.00 246.00 
C 75.27 240.67 72.44 223.59 81.75 231.25 C 85.31 236.16 83.59 247.88 75.00 246.00
M 71.00 230.00 
C 70.41 236.03 63.00 231.44 71.00 230.00
M 71.00 239.00 
C 64.41 240.64 54.52 240.68 48.00 239.00
C 54.59 237.36 64.48 237.31 71.00 239.00
M 71.00 249.00 
C 68.96 246.83 65.35 246.75 64.00 244.00
C 67.98 243.46 72.61 243.65 71.00 249.00
M 61.00 252.00 
C 56.96 252.24 51.20 252.98 53.00 247.00
C 55.74 248.11 59.24 249.47 61.00 252.00 Z"/>
</g>
<g fill="None" fill-opacity="0.0" stroke="#000000" stroke-opacity="0.00" stroke-width="0.3"><path d="
M 268.00 137.00 
C 221.00 137.00 174.00 137.00 127.00 137.00
C 127.00 166.67 127.00 196.33 127.00 226.00
C 174.00 226.00 221.00 226.00 268.00 226.00
C 268.00 196.33 268.00 166.67 268.00 137.00 Z"/>
</g>
<g fill="None" fill-opacity="0.0" stroke="#000000" stroke-opacity="0.00" stroke-width="0.3"><path d="
M 62.00 227.00 
C 59.04 224.89 50.60 224.90 53.00 231.00
C 56.11 230.06 58.72 227.80 62.00 227.00 Z"/>
</g>
<g fill="None" fill-opacity="0.0" stroke="#000000" stroke-opacity="0.00" stroke-width="0.3"><path d="
M 75.00 246.00 
C 83.59 247.88 85.31 236.16 81.75 231.25 C 72.44 223.59 75.27 240.67 75.00 246.00 Z"/>
</g>
<g fill="None" fill-opacity="0.0" stroke="#000000" stroke-opacity="0.00" stroke-width="0.3"><path d="
M 71.00 230.00 
C 63.00 231.44 70.41 236.03 71.00 230.00 Z"/>
</g>
<g fill="None" fill-opacity="0.0" stroke="#000000" stroke-opacity="0.00" stroke-width="0.3"><path d="
M 71.00 239.00 
C 64.48 237.31 54.59 237.36 48.00 239.00
C 54.52 240.68 64.41 240.64 71.00 239.00 Z"/>
</g>
<g fill="None" fill-opacity="0.0" stroke="#000000" stroke-opacity="0.00" stroke-width="0.3"><path d="
M 71.00 249.00 
C 72.61 243.65 67.98 243.46 64.00 244.00
C 65.35 246.75 68.96 246.83 71.00 249.00 Z"/>
</g>
<g fill="None" fill-opacity="0.0" stroke="#000000" stroke-opacity="0.00" stroke-width="0.3"><path d="
M 61.00 252.00 
C 59.24 249.47 55.74 248.11 53.00 247.00
C 51.20 252.98 56.96 252.24 61.00 252.00 Z"/>
</g>
<g fill="#000000" fill-opacity="0.00" stroke="None">
<path d="
M 0.00 318.00 
L 329.00 318.00
L 329.00 0.00
L 0.00 0.00
L 0.00 318.00
M 277.00 129.00 
C 274.68 164.50 276.66 201.08 276.00 237.00
C 259.42 238.66 242.96 240.79 226.00 241.00 C 219.08 242.27 205.24 237.76 204.00 246.00
C 224.43 245.30 241.41 254.98 262.00 253.00 C 281.53 255.35 304.65 247.47 321.25 258.75 C 333.30 274.34 324.18 296.87 327.00 316.00
C 322.67 316.00 318.33 316.00 314.00 316.00
C 311.64 299.15 322.91 266.36 296.98 267.02 C 208.98 266.97 120.99 267.02 33.00 267.00 C 6.21 265.38 17.13 298.84 15.00 316.00
C 10.67 316.00 6.33 316.00 2.00 316.00
C 2.84 299.21 0.30 281.50 3.31 265.31 C 9.86 249.28 29.73 253.46 44.00 253.00
C 44.00 244.00 44.00 235.00 44.00 226.00 C 45.38 217.94 37.83 211.46 40.00 204.00
C 43.02 204.71 44.73 204.92 44.00 201.00
C 50.81 204.07 56.89 193.75 62.00 201.00
C 65.13 201.06 65.19 196.49 69.00 198.00
C 68.21 202.72 74.27 202.82 78.00 202.00
C 86.68 210.21 71.25 216.24 75.00 225.00
C 93.95 219.96 92.86 254.98 75.00 252.00
C 94.43 254.33 115.82 252.34 136.00 253.00 C 155.68 254.96 171.09 243.84 191.00 246.00
C 188.76 237.21 173.07 242.52 165.00 241.00 C 155.64 238.68 144.69 241.99 135.78 238.22 C 124.56 239.84 115.10 235.95 119.00 223.00 C 118.35 191.75 120.32 159.83 118.00 129.00
C 170.09 125.84 224.91 125.84 277.00 129.00 Z"/>
</g>
<g fill="#FFFFFF" fill-opacity="1.00" stroke="None">
<path d="
M 277.00 129.00 
C 224.91 125.84 170.09 125.84 118.00 129.00
C 120.32 159.83 118.35 191.75 119.00 223.00 C 115.10 235.95 124.56 239.84 135.78 238.22 C 144.69 241.99 155.64 238.68 165.00 241.00 C 173.07 242.52 188.76 237.21 191.00 246.00
C 171.09 243.84 155.68 254.96 136.00 253.00 C 115.82 252.34 94.43 254.33 75.00 252.00
C 92.86 254.98 93.95 219.96 75.00 225.00
C 71.25 216.24 86.68 210.21 78.00 202.00
C 74.27 202.82 68.21 202.72 69.00 198.00
C 65.19 196.49 65.13 201.06 62.00 201.00
C 56.89 193.75 50.81 204.07 44.00 201.00
C 44.73 204.92 43.02 204.71 40.00 204.00
C 37.83 211.46 45.38 217.94 44.00 226.00 C 44.00 235.00 44.00 244.00 44.00 253.00
C 29.73 253.46 9.86 249.28 3.31 265.31 C 0.30 281.50 2.84 299.21 2.00 316.00
C 6.33 316.00 10.67 316.00 15.00 316.00
C 17.13 298.84 6.21 265.38 33.00 267.00 C 120.99 267.02 208.98 266.97 296.98 267.02 C 322.91 266.36 311.64 299.15 314.00 316.00
C 318.33 316.00 322.67 316.00 327.00 316.00
C 324.18 296.87 333.30 274.34 321.25 258.75 C 304.65 247.47 281.53 255.35 262.00 253.00 C 241.41 254.98 224.43 245.30 204.00 246.00
C 205.24 237.76 219.08 242.27 226.00 241.00 C 242.96 240.79 259.42 238.66 276.00 237.00
C 276.66 201.08 274.68 164.50 277.00 129.00
M 268.00 137.00 
C 268.00 166.67 268.00 196.33 268.00 226.00
C 221.00 226.00 174.00 226.00 127.00 226.00
C 127.00 196.33 127.00 166.67 127.00 137.00
C 174.00 137.00 221.00 137.00 268.00 137.00
M 62.00 227.00 
C 58.72 227.80 56.11 230.06 53.00 231.00
C 50.60 224.90 59.04 224.89 62.00 227.00
M 75.00 246.00 
C 75.27 240.67 72.44 223.59 81.75 231.25 C 85.31 236.16 83.59 247.88 75.00 246.00
M 71.00 230.00 
C 70.41 236.03 63.00 231.44 71.00 230.00
M 71.00 239.00 
C 64.41 240.64 54.52 240.68 48.00 239.00
C 54.59 237.36 64.48 237.31 71.00 239.00
M 71.00 249.00 
C 68.96 246.83 65.35 246.75 64.00 244.00
C 67.98 243.46 72.61 243.65 71.00 249.00
M 61.00 252.00 
C 56.96 252.24 51.20 252.98 53.00 247.00
C 55.74 248.11 59.24 249.47 61.00 252.00 Z"/>
</g>
<g fill="#000000" fill-opacity="0.00" stroke="None">
<path d="
M 268.00 137.00 
C 221.00 137.00 174.00 137.00 127.00 137.00
C 127.00 166.67 127.00 196.33 127.00 226.00
C 174.00 226.00 221.00 226.00 268.00 226.00
C 268.00 196.33 268.00 166.67 268.00 137.00 Z"/>
</g>
<g fill="#000000" fill-opacity="0.00" stroke="None">
<path d="
M 62.00 227.00 
C 59.04 224.89 50.60 224.90 53.00 231.00
C 56.11 230.06 58.72 227.80 62.00 227.00 Z"/>
</g>
<g fill="#000000" fill-opacity="0.00" stroke="None">
<path d="
M 75.00 246.00 
C 83.59 247.88 85.31 236.16 81.75 231.25 C 72.44 223.59 75.27 240.67 75.00 246.00 Z"/>
</g>
<g fill="#000000" fill-opacity="0.00" stroke="None">
<path d="
M 71.00 230.00 
C 63.00 231.44 70.41 236.03 71.00 230.00 Z"/>
</g>
<g fill="#000000" fill-opacity="0.00" stroke="None">
<path d="
M 71.00 239.00 
C 64.48 237.31 54.59 237.36 48.00 239.00
C 54.52 240.68 64.41 240.64 71.00 239.00 Z"/>
</g>
<g fill="#000000" fill-opacity="0.00" stroke="None">
<path d="
M 71.00 249.00 
C 72.61 243.65 67.98 243.46 64.00 244.00
C 65.35 246.75 68.96 246.83 71.00 249.00 Z"/>
</g>
<g fill="#000000" fill-opacity="0.00" stroke="None">
<path d="
M 61.00 252.00 
C 59.24 249.47 55.74 248.11 53.00 247.00
C 51.20 252.98 56.96 252.24 61.00 252.00 Z"/>
</g>
</svg>