<svg xmlns="http://www.w3.org/2000/svg" xmlns:v="https://svgstorm.com"
viewBox = "0 0 329 318"
width="329"
height="318">
<g fill="None" fill-opacity="0.0" stroke="#000000" stroke-opacity="0.00" stroke-width="0.3"><path d="
M 0.00 318.00 
L 329.00 318.00
L 329.00 0.00
L 0.00 0.00
L 0.00 318.00
M 131.00 93.00 
C 140.21 87.47 153.39 83.82 163.69 90.31 C 174.63 96.92 174.90 110.17 174.00 122.00
C 157.51 121.30 141.32 119.42 125.00 118.00
C 124.29 114.06 126.49 110.90 126.00 107.00
C 121.24 109.71 122.19 118.91 116.00 119.00
C 116.57 112.98 121.26 108.36 124.00 103.00
C 119.49 99.63 114.83 98.04 110.00 102.00
C 112.97 109.56 102.18 116.53 98.00 109.00
C 77.14 121.71 58.06 138.62 37.00 151.00
C 44.97 180.27 56.12 208.40 63.00 238.00
C 56.14 235.78 56.59 242.18 57.00 247.00
C 65.67 247.00 74.33 247.00 83.00 247.00 C 89.95 248.30 102.59 243.02 104.00 253.00
C 118.33 253.00 132.67 253.00 147.00 253.00
C 141.88 242.72 156.01 246.68 162.00 246.00
C 162.00 232.00 162.00 218.00 162.00 204.00 C 163.27 192.86 156.01 170.23 175.00 175.00 C 203.00 175.00 231.00 175.00 259.00 175.00 C 278.03 170.31 270.71 192.74 272.00 204.00 C 272.00 218.00 272.00 232.00 272.00 246.00
C 277.33 246.00 282.67 246.00 288.00 246.00
C 288.49 248.73 287.70 251.02 286.00 253.00
C 300.15 253.15 320.28 249.79 325.97 266.03 C 328.66 281.87 326.15 299.20 327.00 316.00
C 322.67 316.00 318.33 316.00 314.00 316.00
C 311.64 299.15 322.91 266.36 296.98 267.02 C 208.98 266.97 120.99 267.02 33.00 267.00 C 6.21 265.38 17.13 298.84 15.00 316.00
C 10.67 316.00 6.33 316.00 2.00 316.00
C 2.60 299.39 0.78 282.12 2.93 265.93 C 8.73 250.47 27.27 252.88 41.00 253.00
C 41.70 248.70 45.38 245.74 50.00 247.00
C 53.45 223.27 39.59 202.99 34.22 180.78 C 31.62 173.87 29.91 166.73 27.08 159.92 C 26.97 151.45 17.25 148.27 20.00 139.00 C 24.69 130.30 35.33 142.26 40.25 135.25 C 51.36 127.90 61.54 118.97 72.70 111.70 C 77.01 106.78 85.71 104.59 86.99 97.99 C 92.25 86.31 98.40 99.85 105.00 99.00
C 102.65 91.61 104.33 81.45 114.08 84.93 C 119.62 85.89 126.93 88.02 131.00 93.00 Z"/>
</g>
<g fill="None" fill-opacity="0.0" stroke="#FEFEFE" stroke-opacity="1.00" stroke-width="0.3"><path d="
M 131.00 93.00 
C 126.93 88.02 119.62 85.89 114.08 84.93 C 104.33 81.45 102.65 91.61 105.00 99.00
C 98.40 99.85 92.25 86.31 86.99 97.99 C 85.71 104.59 77.01 106.78 72.70 111.70 C 61.54 118.97 51.36 127.90 40.25 135.25 C 35.33 142.26 24.69 130.30 20.00 139.00 C 17.25 148.27 26.97 151.45 27.08 159.92 C 29.91 166.73 31.62 173.87 34.22 180.78 C 39.59 202.99 53.45 223.27 50.00 247.00
C 45.38 245.74 41.70 248.70 41.00 253.00
C 27.27 252.88 8.73 250.47 2.93 265.93 C 0.78 282.12 2.60 299.39 2.00 316.00
C 6.33 316.00 10.67 316.00 15.00 316.00
C 17.13 298.84 6.21 265.38 33.00 267.00 C 120.99 267.02 208.98 266.97 296.98 267.02 C 322.91 266.36 311.64 299.15 314.00 316.00
C 318.33 316.00 322.67 316.00 327.00 316.00
C 326.15 299.20 328.66 281.87 325.97 266.03 C 320.28 249.79 300.15 253.15 286.00 253.00
C 287.70 251.02 288.49 248.73 288.00 246.00
C 282.67 246.00 277.33 246.00 272.00 246.00
C 272.00 232.00 272.00 218.00 272.00 204.00 C 270.71 192.74 278.03 170.31 259.00 175.00 C 231.00 175.00 203.00 175.00 175.00 175.00 C 156.01 170.23 163.27 192.86 162.00 204.00 C 162.00 218.00 162.00 232.00 162.00 246.00
C 156.01 246.68 141.88 242.72 147.00 253.00
C 132.67 253.00 118.33 253.00 104.00 253.00
C 102.59 243.02 89.95 248.30 83.00 247.00 C 74.33 247.00 65.67 247.00 57.00 247.00
C 56.59 242.18 56.14 235.78 63.00 238.00
C 56.12 208.40 44.97 180.27 37.00 151.00
C 58.06 138.62 77.14 121.71 98.00 109.00
C 102.18 116.53 112.97 109.56 110.00 102.00
C 114.83 98.04 119.49 99.63 124.00 103.00
C 121.26 108.36 116.57 112.98 116.00 119.00
C 122.19 118.91 121.24 109.71 126.00 107.00
C 126.49 110.90 124.29 114.06 125.00 118.00
C 141.32 119.42 157.51 121.30 174.00 122.00
C 174.90 110.17 174.63 96.92 163.69 90.31 C 153.39 83.82 140.21 87.47 131.00 93.00
M 108.00 89.00 
C 116.17 93.96 105.98 99.43 108.00 89.00
M 95.00 103.00 
C 83.74 112.36 70.83 123.20 57.00 129.00
C 69.22 120.60 80.92 108.33 95.00 103.00
M 107.00 104.00 
C 107.06 108.33 103.15 105.49 107.00 104.00
M 30.00 141.00 
C 28.25 142.63 25.66 144.18 23.00 144.00
C 22.08 140.19 27.58 138.98 30.00 141.00
M 38.00 144.00 
C 37.73 146.19 34.19 149.00 32.00 147.00
C 33.31 145.02 36.09 145.25 38.00 144.00
M 38.00 173.00 
C 33.47 167.21 33.51 158.60 30.00 152.00
C 35.30 157.29 35.94 166.05 38.00 173.00
M 40.00 178.00 
C 43.82 183.72 36.42 182.60 40.00 178.00
M 265.00 182.00 
C 265.00 202.00 265.00 222.00 265.00 242.00
C 233.00 242.00 201.00 242.00 169.00 242.00
C 169.00 222.00 169.00 202.00 169.00 182.00
C 201.00 182.00 233.00 182.00 265.00 182.00
M 43.00 188.00 
C 46.56 192.67 39.71 191.47 43.00 188.00
M 46.00 197.00 
C 48.79 201.83 43.21 200.36 46.00 197.00 Z"/>
</g>
<g fill="None" fill-opacity="0.0" stroke="#000000" stroke-opacity="0.00" stroke-width="0.3"><path d="
M 108.00 89.00 
C 105.98 99.43 116.17 93.96 108.00 89.00 Z"/>
</g>
<g fill="None" fill-opacity="0.0" stroke="#000000" stroke-opacity="0.00" stroke-width="0.3"><path d="
M 95.00 103.00 
C 80.92 108.33 69.22 120.60 57.00 129.00
C 70.83 123.20 83.74 112.36 95.00 103.00 Z"/>
</g>
<g fill="None" fill-opacity="0.0" stroke="#000000" stroke-opacity="0.00" stroke-width="0.3"><path d="
M 107.00 104.00 
C 103.15 105.49 107.06 108.33 107.00 104.00 Z"/>
</g>
<g fill="None" fill-opacity="0.0" stroke="#000000" stroke-opacity="0.00" stroke-width="0.3"><path d="
M 30.00 141.00 
C 27.58 138.98 22.08 140.19 23.00 144.00
C 25.66 144.18 28.25 142.63 30.00 141.00 Z"/>
</g>
<g fill="None" fill-opacity="0.0" stroke="#020202" stroke-opacity="0.09" stroke-width="0.3"><path d="
M 38.00 144.00 
C 36.09 145.25 33.31 145.02 32.00 147.00
C 34.19 149.00 37.73 146.19 38.00 144.00 Z"/>
</g>
<g fill="None" fill-opacity="0.0" stroke="#000000" stroke-opacity="0.06" stroke-width="0.3"><path d="
M 38.00 173.00 
C 35.94 166.05 35.30 157.29 30.00 152.00
C 33.51 158.60 33.47 167.21 38.00 173.00 Z"/>
</g>
<g fill="None" fill-opacity="0.0" stroke="#000000" stroke-opacity="0.00" stroke-width="0.3"><path d="
M 40.00 178.00 
C 36.42 182.60 43.82 183.72 40.00 178.00 Z"/>
</g>
<g fill="None" fill-opacity="0.0" stroke="#000000" stroke-opacity="0.00" stroke-width="0.3"><path d="
M 265.00 182.00 
C 233.00 182.00 201.00 182.00 169.00 182.00
C 169.00 202.00 169.00 222.00 169.00 242.00
C 201.00 242.00 233.00 242.00 265.00 242.00
C 265.00 222.00 265.00 202.00 265.00 182.00 Z"/>
</g>
<g fill="None" fill-opacity="0.0" stroke="#000000" stroke-opacity="0.00" stroke-width="0.3"><path d="
M 43.00 188.00 
C 39.71 191.47 46.56 192.67 43.00 188.00 Z"/>
</g>
<g fill="None" fill-opacity="0.0" stroke="#000000" stroke-opacity="0.00" stroke-width="0.3"><path d="
M 46.00 197.00 
C 43.21 200.36 48.79 201.83 46.00 197.00 Z"/>
</g>
<g fill="#000000" fill-opacity="0.00" stroke="None">
<path d="
M 0.00 318.00 
L 329.00 318.00
L 329.00 0.00
L 0.00 0.00
L 0.00 318.00
M 131.00 93.00 
C 140.21 87.47 153.39 83.82 163.69 90.31 C 174.63 96.92 174.90 110.17 174.00 122.00
C 157.51 121.30 141.32 119.42 125.00 118.00
C 124.29 114.06 126.49 110.90 126.00 107.00
C 121.24 109.71 122.19 118.91 116.00 119.00
C 116.57 112.98 121.26 108.36 124.00 103.00
C 119.49 99.63 114.83 98.04 110.00 102.00
C 112.97 109.56 102.18 116.53 98.00 109.00
C 77.14 121.71 58.06 138.62 37.00 151.00
C 44.97 180.27 56.12 208.40 63.00 238.00
C 56.14 235.78 56.59 242.18 57.00 247.00
C 65.67 247.00 74.33 247.00 83.00 247.00 C 89.95 248.30 102.59 243.02 104.00 253.00
C 118.33 253.00 132.67 253.00 147.00 253.00
C 141.88 242.72 156.01 246.68 162.00 246.00
C 162.00 232.00 162.00 218.00 162.00 204.00 C 163.27 192.86 156.01 170.23 175.00 175.00 C 203.00 175.00 231.00 175.00 259.00 175.00 C 278.03 170.31 270.71 192.74 272.00 204.00 C 272.00 218.00 272.00 232.00 272.00 246.00
C 277.33 246.00 282.67 246.00 288.00 246.00
C 288.49 248.73 287.70 251.02 286.00 253.00
C 300.15 253.15 320.28 249.79 325.97 266.03 C 328.66 281.87 326.15 299.20 327.00 316.00
C 322.67 316.00 318.33 316.00 314.00 316.00
C 311.64 299.15 322.91 266.36 296.98 267.02 C 208.98 266.97 120.99 267.02 33.00 267.00 C 6.21 265.38 17.13 298.84 15.00 316.00
C 10.67 316.00 6.33 316.00 2.00 316.00
C 2.60 299.39 0.78 282.12 2.93 265.93 C 8.73 250.47 27.27 252.88 41.00 253.00
C 41.70 248.70 45.38 245.74 50.00 247.00
C 53.45 223.27 39.59 202.99 34.22 180.78 C 31.62 173.87 29.91 166.73 27.08 159.92 C 26.97 151.45 17.25 148.27 20.00 139.00 C 24.69 130.30 35.33 142.26 40.25 135.25 C 51.36 127.90 61.54 118.97 72.70 111.70 C 77.01 106.78 85.71 104.59 86.99 97.99 C 92.25 86.31 98.40 99.85 105.00 99.00
C 102.65 91.61 104.33 81.45 114.08 84.93 C 119.62 85.89 126.93 88.02 131.00 93.00 Z"/>
</g>
<g fill="#FEFEFE" fill-opacity="1.00" stroke="None">
<path d="
M 131.00 93.00 
C 126.93 88.02 119.62 85.89 114.08 84.93 C 104.33 81.45 102.65 91.61 105.00 99.00
C 98.40 99.85 92.25 86.31 86.99 97.99 C 85.71 104.59 77.01 106.78 72.70 111.70 C 61.54 118.97 51.36 127.90 40.25 135.25 C 35.33 142.26 24.69 130.30 20.00 139.00 C 17.25 148.27 26.97 151.45 27.08 159.92 C 29.91 166.73 31.62 173.87 34.22 180.78 C 39.59 202.99 53.45 223.27 50.00 247.00
C 45.38 245.74 41.70 248.70 41.00 253.00
C 27.27 252.88 8.73 250.47 2.93 265.93 C 0.78 282.12 2.60 299.39 2.00 316.00
C 6.33 316.00 10.67 316.00 15.00 316.00
C 17.13 298.84 6.21 265.38 33.00 267.00 C 120.99 267.02 208.98 266.97 296.98 267.02 C 322.91 266.36 311.64 299.15 314.00 316.00
C 318.33 316.00 322.67 316.00 327.00 316.00
C 326.15 299.20 328.66 281.87 325.97 266.03 C 320.28 249.79 300.15 253.15 286.00 253.00
C 287.70 251.02 288.49 248.73 288.00 246.00
C 282.67 246.00 277.33 246.00 272.00 246.00
C 272.00 232.00 272.00 218.00 272.00 204.00 C 270.71 192.74 278.03 170.31 259.00 175.00 C 231.00 175.00 203.00 175.00 175.00 175.00 C 156.01 170.23 163.27 192.86 162.00 204.00 C 162.00 218.00 162.00 232.00 162.00 246.00
C 156.01 246.68 141.88 242.72 147.00 253.00
C 132.67 253.00 118.33 253.00 104.00 253.00
C 102.59 243.02 89.95 248.30 83.00 247.00 C 74.33 247.00 65.67 247.00 57.00 247.00
C 56.59 242.18 56.14 235.78 63.00 238.00
C 56.12 208.40 44.97 180.27 37.00 151.00
C 58.06 138.62 77.14 121.71 98.00 109.00
C 102.18 116.53 112.97 109.56 110.00 102.00
C 114.83 98.04 119.49 99.63 124.00 103.00
C 121.26 108.36 116.57 112.98 116.00 119.00
C 122.19 118.91 121.24 109.71 126.00 107.00
C 126.49 110.90 124.29 114.06 125.00 118.00
C 141.32 119.42 157.51 121.30 174.00 122.00
C 174.90 110.17 174.63 96.92 163.69 90.31 C 153.39 83.82 140.21 87.47 131.00 93.00
M 108.00 89.00 
C 116.17 93.96 105.98 99.43 108.00 89.00
M 95.00 103.00 
C 83.74 112.36 70.83 123.20 57.00 129.00
C 69.22 120.60 80.92 108.33 95.00 103.00
M 107.00 104.00 
C 107.06 108.33 103.15 105.49 107.00 104.00
M 30.00 141.00 
C 28.25 142.63 25.66 144.18 23.00 144.00
C 22.08 140.19 27.58 138.98 30.00 141.00
M 38.00 144.00 
C 37.73 146.19 34.19 149.00 32.00 147.00
C 33.31 145.02 36.09 145.25 38.00 144.00
M 38.00 173.00 
C 33.47 167.21 33.51 158.60 30.00 152.00
C 35.30 157.29 35.94 166.05 38.00 173.00
M 40.00 178.00 
C 43.82 183.72 36.42 182.60 40.00 178.00
M 265.00 182.00 
C 265.00 202.00 265.00 222.00 265.00 242.00
C 233.00 242.00 201.00 242.00 169.00 242.00
C 169.00 222.00 169.00 202.00 169.00 182.00
C 201.00 182.00 233.00 182.00 265.00 182.00
M 43.00 188.00 
C 46.56 192.67 39.71 191.47 43.00 188.00
M 46.00 197.00 
C 48.79 201.83 43.21 200.36 46.00 197.00 Z"/>
</g>
<g fill="#000000" fill-opacity="0.00" stroke="None">
<path d="
M 108.00 89.00 
C 105.98 99.43 116.17 93.96 108.00 89.00 Z"/>
</g>
<g fill="#000000" fill-opacity="0.00" stroke="None">
<path d="
M 95.00 103.00 
C 80.92 108.33 69.22 120.60 57.00 129.00
C 70.83 123.20 83.74 112.36 95.00 103.00 Z"/>
</g>
<g fill="#000000" fill-opacity="0.00" stroke="None">
<path d="
M 107.00 104.00 
C 103.15 105.49 107.06 108.33 107.00 104.00 Z"/>
</g>
<g fill="#000000" fill-opacity="0.00" stroke="None">
<path d="
M 30.00 141.00 
C 27.58 138.98 22.08 140.19 23.00 144.00
C 25.66 144.18 28.25 142.63 30.00 141.00 Z"/>
</g>
<g fill="#020202" fill-opacity="0.09" stroke="None">
<path d="
M 38.00 144.00 
C 36.09 145.25 33.31 145.02 32.00 147.00
C 34.19 149.00 37.73 146.19 38.00 144.00 Z"/>
</g>
<g fill="#000000" fill-opacity="0.06" stroke="None">
<path d="
M 38.00 173.00 
C 35.94 166.05 35.30 157.29 30.00 152.00
C 33.51 158.60 33.47 167.21 38.00 173.00 Z"/>
</g>
<g fill="#000000" fill-opacity="0.00" stroke="None">
<path d="
M 40.00 178.00 
C 36.42 182.60 43.82 183.72 40.00 178.00 Z"/>
</g>
<g fill="#000000" fill-opacity="0.00" stroke="None">
<path d="
M 265.00 182.00 
C 233.00 182.00 201.00 182.00 169.00 182.00
C 169.00 202.00 169.00 222.00 169.00 242.00
C 201.00 242.00 233.00 242.00 265.00 242.00
C 265.00 222.00 265.00 202.00 265.00 182.00 Z"/>
</g>
<g fill="#000000" fill-opacity="0.00" stroke="None">
<path d="
M 43.00 188.00 
C 39.71 191.47 46.56 192.67 43.00 188.00 Z"/>
</g>
<g fill="#000000" fill-opacity="0.00" stroke="None">
<path d="
M 46.00 197.00 
C 43.21 200.36 48.79 201.83 46.00 197.00 Z"/>
</g>
</svg>