<svg xmlns="http://www.w3.org/2000/svg" xmlns:v="https://svgstorm.com"
viewBox = "0 0 329 318"
width="329"
height="318">
<g fill="None" fill-opacity="0.0" stroke="#000000" stroke-opacity="0.00" stroke-width="0.3"><path d="
M 0.00 318.00 
L 329.00 318.00
L 329.00 0.00
L 0.00 0.00
L 0.00 318.00
M 23.00 173.00 
C 23.00 115.67 23.00 58.33 23.00 1.00
C 64.77 1.84 107.67 -0.68 148.74 2.26 C 149.34 58.47 148.83 114.76 149.00 171.00 C 137.19 175.62 121.35 171.70 108.00 173.00 C 79.67 173.00 51.33 173.00 23.00 173.00
M 281.00 246.00 
C 286.33 246.00 291.67 246.00 297.00 246.00
C 297.49 248.73 296.70 251.02 295.00 253.00
C 307.75 251.46 324.49 254.46 326.98 269.02 C 327.35 284.22 326.79 300.22 327.00 316.00
C 322.67 316.00 318.33 316.00 314.00 316.00
C 311.64 299.15 322.91 266.36 296.98 267.02 C 208.98 266.97 120.99 267.02 33.00 267.00 C 6.21 265.38 17.13 298.84 15.00 316.00
C 10.67 316.00 6.33 316.00 2.00 316.00
C 5.65 296.30 -7.34 266.81 13.22 255.22 C 35.39 250.26 59.89 254.32 83.00 253.00 C 107.33 253.00 131.67 253.00 156.00 253.00
C 150.88 242.72 165.01 246.68 171.00 246.00
C 171.00 232.00 171.00 218.00 171.00 204.00 C 172.27 192.86 165.01 170.23 184.00 175.00 C 212.00 175.00 240.00 175.00 268.00 175.00 C 287.03 170.31 279.72 192.74 281.00 204.00 C 281.00 218.00 281.00 232.00 281.00 246.00 Z"/>
</g>
<g fill="None" fill-opacity="0.0" stroke="#FFFFFF" stroke-opacity="1.00" stroke-width="0.3"><path d="
M 23.00 173.00 
C 51.33 173.00 79.67 173.00 108.00 173.00 C 121.35 171.70 137.19 175.62 149.00 171.00 C 148.83 114.76 149.34 58.47 148.74 2.26 C 107.67 -0.68 64.77 1.84 23.00 1.00
C 23.00 58.33 23.00 115.67 23.00 173.00
M 133.00 67.00 
C 134.35 79.09 131.07 90.92 134.00 103.00
C 129.80 109.12 123.16 110.94 116.00 109.00
C 115.59 113.69 111.20 114.75 107.00 114.00 C 102.40 113.59 103.58 121.06 99.00 120.00
C 99.05 126.28 108.18 128.86 109.92 135.08 C 111.79 141.95 116.39 147.71 117.00 155.00
C 99.48 145.99 76.14 148.06 63.00 131.00
C 64.31 127.74 67.11 124.93 70.00 123.00
C 69.67 113.84 62.41 113.49 57.00 115.00
C 58.18 110.65 53.87 107.96 50.00 109.00
C 54.63 102.45 42.96 95.54 39.00 102.00
C 36.99 90.29 40.16 77.68 37.00 67.00
C 52.64 63.95 47.69 44.03 52.25 32.25 C 57.17 18.06 70.72 11.07 85.67 14.33 C 99.75 13.60 108.26 26.05 119.25 32.75 C 132.11 41.73 116.50 62.61 133.00 67.00 Z"/>
</g>
<g fill="None" fill-opacity="0.0" stroke="#000000" stroke-opacity="0.00" stroke-width="0.3"><path d="
M 133.00 67.00 
C 116.50 62.61 132.11 41.73 119.25 32.75 C 108.26 26.05 99.75 13.60 85.67 14.33 C 70.72 11.07 57.17 18.06 52.25 32.25 C 47.69 44.03 52.64 63.95 37.00 67.00
C 40.16 77.68 36.99 90.29 39.00 102.00
C 42.96 95.54 54.63 102.45 50.00 109.00
C 53.87 107.96 58.18 110.65 57.00 115.00
C 62.41 113.49 69.67 113.84 70.00 123.00
C 67.11 124.93 64.31 127.74 63.00 131.00
C 76.14 148.06 99.48 145.99 117.00 155.00
C 116.39 147.71 111.79 141.95 109.92 135.08 C 108.18 128.86 99.05 126.28 99.00 120.00
C 103.58 121.06 102.40 113.59 107.00 114.00 C 111.20 114.75 115.59 113.69 116.00 109.00
C 123.16 110.94 129.80 109.12 134.00 103.00
C 131.07 90.92 134.35 79.09 133.00 67.00
M 87.00 24.00 
C 88.60 29.66 85.34 30.54 82.00 33.00
C 79.62 32.37 80.05 28.43 77.00 29.00
C 77.55 26.72 79.99 25.41 80.00 23.00
C 82.24 23.56 84.48 24.38 87.00 24.00
M 108.00 61.00 
C 104.23 60.13 101.80 63.87 98.00 63.00
C 102.08 64.24 100.63 69.97 97.00 66.00
C 96.72 69.47 100.32 71.24 103.00 69.00
C 101.97 56.35 116.87 74.75 105.75 78.75 C 100.37 79.96 100.24 99.37 92.00 88.00
C 87.06 93.34 96.95 98.51 92.07 105.07 C 88.05 110.84 78.47 108.13 75.00 104.00
C 74.05 113.32 87.85 111.48 94.00 110.00
C 97.05 113.77 93.54 118.81 89.00 118.00
C 90.58 123.82 82.76 132.45 83.00 122.00 C 81.88 117.96 70.70 116.12 75.00 112.00
C 59.34 111.29 57.01 91.82 52.67 80.33 C 48.60 67.12 51.57 44.30 69.22 45.22 C 83.82 45.19 108.45 39.91 108.00 61.00 Z"/>
</g>
<g fill="None" fill-opacity="0.0" stroke="#FFFFFF" stroke-opacity="1.00" stroke-width="0.3"><path d="
M 87.00 24.00 
C 84.48 24.38 82.24 23.56 80.00 23.00
C 79.99 25.41 77.55 26.72 77.00 29.00
C 80.05 28.43 79.62 32.37 82.00 33.00
C 85.34 30.54 88.60 29.66 87.00 24.00 Z"/>
</g>
<g fill="None" fill-opacity="0.0" stroke="#FEFEFE" stroke-opacity="1.00" stroke-width="0.3"><path d="
M 108.00 61.00 
C 108.45 39.91 83.82 45.19 69.22 45.22 C 51.57 44.30 48.60 67.12 52.67 80.33 C 57.01 91.82 59.34 111.29 75.00 112.00
C 70.70 116.12 81.88 117.96 83.00 122.00 C 82.76 132.45 90.58 123.82 89.00 118.00
C 93.54 118.81 97.05 113.77 94.00 110.00
C 87.85 111.48 74.05 113.32 75.00 104.00
C 78.47 108.13 88.05 110.84 92.07 105.07 C 96.95 98.51 87.06 93.34 92.00 88.00
C 100.24 99.37 100.37 79.96 105.75 78.75 C 116.87 74.75 101.97 56.35 103.00 69.00
C 100.32 71.24 96.72 69.47 97.00 66.00
C 100.63 69.97 102.08 64.24 98.00 63.00
C 101.80 63.87 104.23 60.13 108.00 61.00
M 72.00 63.00 
C 68.99 64.22 69.22 67.40 68.00 70.00
C 64.96 70.07 63.39 66.70 64.00 64.00
C 62.64 61.73 58.93 65.51 60.00 61.00
C 64.48 59.97 67.50 64.03 72.00 63.00
M 83.00 85.00 
C 79.51 90.21 76.43 85.72 83.00 85.00 Z"/>
</g>
<g fill="None" fill-opacity="0.0" stroke="#000000" stroke-opacity="0.00" stroke-width="0.3"><path d="
M 72.00 63.00 
C 67.50 64.03 64.48 59.97 60.00 61.00
C 58.93 65.51 62.64 61.73 64.00 64.00
C 63.39 66.70 64.96 70.07 68.00 70.00
C 69.22 67.40 68.99 64.22 72.00 63.00
M 65.00 67.00 
C 63.95 61.11 70.89 66.99 65.00 67.00 Z"/>
</g>
<g fill="None" fill-opacity="0.0" stroke="#FFFFFF" stroke-opacity="1.00" stroke-width="0.3"><path d="
M 65.00 67.00 
C 70.89 66.99 63.95 61.11 65.00 67.00 Z"/>
</g>
<g fill="None" fill-opacity="0.0" stroke="#090909" stroke-opacity="0.14" stroke-width="0.3"><path d="
M 83.00 85.00 
C 76.43 85.72 79.51 90.21 83.00 85.00 Z"/>
</g>
<g fill="None" fill-opacity="0.0" stroke="#FFFFFF" stroke-opacity="1.00" stroke-width="0.3"><path d="
M 281.00 246.00 
C 281.00 232.00 281.00 218.00 281.00 204.00 C 279.72 192.74 287.03 170.31 268.00 175.00 C 240.00 175.00 212.00 175.00 184.00 175.00 C 165.01 170.23 172.27 192.86 171.00 204.00 C 171.00 218.00 171.00 232.00 171.00 246.00
C 165.01 246.68 150.88 242.72 156.00 253.00
C 131.67 253.00 107.33 253.00 83.00 253.00 C 59.89 254.32 35.39 250.26 13.22 255.22 C -7.34 266.81 5.65 296.30 2.00 316.00
C 6.33 316.00 10.67 316.00 15.00 316.00
C 17.13 298.84 6.21 265.38 33.00 267.00 C 120.99 267.02 208.98 266.97 296.98 267.02 C 322.91 266.36 311.64 299.15 314.00 316.00
C 318.33 316.00 322.67 316.00 327.00 316.00
C 326.79 300.22 327.35 284.22 326.98 269.02 C 324.49 254.46 307.75 251.46 295.00 253.00
C 296.70 251.02 297.49 248.73 297.00 246.00
C 291.67 246.00 286.33 246.00 281.00 246.00
M 274.00 182.00 
C 274.00 202.00 274.00 222.00 274.00 242.00
C 242.00 242.00 210.00 242.00 178.00 242.00
C 178.00 222.00 178.00 202.00 178.00 182.00
C 210.00 182.00 242.00 182.00 274.00 182.00 Z"/>
</g>
<g fill="None" fill-opacity="0.0" stroke="#000000" stroke-opacity="0.00" stroke-width="0.3"><path d="
M 274.00 182.00 
C 242.00 182.00 210.00 182.00 178.00 182.00
C 178.00 202.00 178.00 222.00 178.00 242.00
C 210.00 242.00 242.00 242.00 274.00 242.00
C 274.00 222.00 274.00 202.00 274.00 182.00 Z"/>
</g>
<g fill="#000000" fill-opacity="0.00" stroke="None">
<path d="
M 0.00 318.00 
L 329.00 318.00
L 329.00 0.00
L 0.00 0.00
L 0.00 318.00
M 23.00 173.00 
C 23.00 115.67 23.00 58.33 23.00 1.00
C 64.77 1.84 107.67 -0.68 148.74 2.26 C 149.34 58.47 148.83 114.76 149.00 171.00 C 137.19 175.62 121.35 171.70 108.00 173.00 C 79.67 173.00 51.33 173.00 23.00 173.00
M 281.00 246.00 
C 286.33 246.00 291.67 246.00 297.00 246.00
C 297.49 248.73 296.70 251.02 295.00 253.00
C 307.75 251.46 324.49 254.46 326.98 269.02 C 327.35 284.22 326.79 300.22 327.00 316.00
C 322.67 316.00 318.33 316.00 314.00 316.00
C 311.64 299.15 322.91 266.36 296.98 267.02 C 208.98 266.97 120.99 267.02 33.00 267.00 C 6.21 265.38 17.13 298.84 15.00 316.00
C 10.67 316.00 6.33 316.00 2.00 316.00
C 5.65 296.30 -7.34 266.81 13.22 255.22 C 35.39 250.26 59.89 254.32 83.00 253.00 C 107.33 253.00 131.67 253.00 156.00 253.00
C 150.88 242.72 165.01 246.68 171.00 246.00
C 171.00 232.00 171.00 218.00 171.00 204.00 C 172.27 192.86 165.01 170.23 184.00 175.00 C 212.00 175.00 240.00 175.00 268.00 175.00 C 287.03 170.31 279.72 192.74 281.00 204.00 C 281.00 218.00 281.00 232.00 281.00 246.00 Z"/>
</g>
<g fill="#FFFFFF" fill-opacity="1.00" stroke="None">
<path d="
M 23.00 173.00 
C 51.33 173.00 79.67 173.00 108.00 173.00 C 121.35 171.70 137.19 175.62 149.00 171.00 C 148.83 114.76 149.34 58.47 148.74 2.26 C 107.67 -0.68 64.77 1.84 23.00 1.00
C 23.00 58.33 23.00 115.67 23.00 173.00
M 133.00 67.00 
C 134.35 79.09 131.07 90.92 134.00 103.00
C 129.80 109.12 123.16 110.94 116.00 109.00
C 115.59 113.69 111.20 114.75 107.00 114.00 C 102.40 113.59 103.58 121.06 99.00 120.00
C 99.05 126.28 108.18 128.86 109.92 135.08 C 111.79 141.95 116.39 147.71 117.00 155.00
C 99.48 145.99 76.14 148.06 63.00 131.00
C 64.31 127.74 67.11 124.93 70.00 123.00
C 69.67 113.84 62.41 113.49 57.00 115.00
C 58.18 110.65 53.87 107.96 50.00 109.00
C 54.63 102.45 42.96 95.54 39.00 102.00
C 36.99 90.29 40.16 77.68 37.00 67.00
C 52.64 63.95 47.69 44.03 52.25 32.25 C 57.17 18.06 70.72 11.07 85.67 14.33 C 99.75 13.60 108.26 26.05 119.25 32.75 C 132.11 41.73 116.50 62.61 133.00 67.00 Z"/>
</g>
<g fill="#000000" fill-opacity="0.00" stroke="None">
<path d="
M 133.00 67.00 
C 116.50 62.61 132.11 41.73 119.25 32.75 C 108.26 26.05 99.75 13.60 85.67 14.33 C 70.72 11.07 57.17 18.06 52.25 32.25 C 47.69 44.03 52.64 63.95 37.00 67.00
C 40.16 77.68 36.99 90.29 39.00 102.00
C 42.96 95.54 54.63 102.45 50.00 109.00
C 53.87 107.96 58.18 110.65 57.00 115.00
C 62.41 113.49 69.67 113.84 70.00 123.00
C 67.11 124.93 64.31 127.74 63.00 131.00
C 76.14 148.06 99.48 145.99 117.00 155.00
C 116.39 147.71 111.79 141.95 109.92 135.08 C 108.18 128.86 99.05 126.28 99.00 120.00
C 103.58 121.06 102.40 113.59 107.00 114.00 C 111.20 114.75 115.59 113.69 116.00 109.00
C 123.16 110.94 129.80 109.12 134.00 103.00
C 131.07 90.92 134.35 79.09 133.00 67.00
M 87.00 24.00 
C 88.60 29.66 85.34 30.54 82.00 33.00
C 79.62 32.37 80.05 28.43 77.00 29.00
C 77.55 26.72 79.99 25.41 80.00 23.00
C 82.24 23.56 84.48 24.38 87.00 24.00
M 108.00 61.00 
C 104.23 60.13 101.80 63.87 98.00 63.00
C 102.08 64.24 100.63 69.97 97.00 66.00
C 96.72 69.47 100.32 71.24 103.00 69.00
C 101.97 56.35 116.87 74.75 105.75 78.75 C 100.37 79.96 100.24 99.37 92.00 88.00
C 87.06 93.34 96.95 98.51 92.07 105.07 C 88.05 110.84 78.47 108.13 75.00 104.00
C 74.05 113.32 87.85 111.48 94.00 110.00
C 97.05 113.77 93.54 118.81 89.00 118.00
C 90.58 123.82 82.76 132.45 83.00 122.00 C 81.88 117.96 70.70 116.12 75.00 112.00
C 59.34 111.29 57.01 91.82 52.67 80.33 C 48.60 67.12 51.57 44.30 69.22 45.22 C 83.82 45.19 108.45 39.91 108.00 61.00 Z"/>
</g>
<g fill="#FFFFFF" fill-opacity="1.00" stroke="None">
<path d="
M 87.00 24.00 
C 84.48 24.38 82.24 23.56 80.00 23.00
C 79.99 25.41 77.55 26.72 77.00 29.00
C 80.05 28.43 79.62 32.37 82.00 33.00
C 85.34 30.54 88.60 29.66 87.00 24.00 Z"/>
</g>
<g fill="#FEFEFE" fill-opacity="1.00" stroke="None">
<path d="
M 108.00 61.00 
C 108.45 39.91 83.82 45.19 69.22 45.22 C 51.57 44.30 48.60 67.12 52.67 80.33 C 57.01 91.82 59.34 111.29 75.00 112.00
C 70.70 116.12 81.88 117.96 83.00 122.00 C 82.76 132.45 90.58 123.82 89.00 118.00
C 93.54 118.81 97.05 113.77 94.00 110.00
C 87.85 111.48 74.05 113.32 75.00 104.00
C 78.47 108.13 88.05 110.84 92.07 105.07 C 96.95 98.51 87.06 93.34 92.00 88.00
C 100.24 99.37 100.37 79.96 105.75 78.75 C 116.87 74.75 101.97 56.35 103.00 69.00
C 100.32 71.24 96.72 69.47 97.00 66.00
C 100.63 69.97 102.08 64.24 98.00 63.00
C 101.80 63.87 104.23 60.13 108.00 61.00
M 72.00 63.00 
C 68.99 64.22 69.22 67.40 68.00 70.00
C 64.96 70.07 63.39 66.70 64.00 64.00
C 62.64 61.73 58.93 65.51 60.00 61.00
C 64.48 59.97 67.50 64.03 72.00 63.00
M 83.00 85.00 
C 79.51 90.21 76.43 85.72 83.00 85.00 Z"/>
</g>
<g fill="#000000" fill-opacity="0.00" stroke="None">
<path d="
M 72.00 63.00 
C 67.50 64.03 64.48 59.97 60.00 61.00
C 58.93 65.51 62.64 61.73 64.00 64.00
C 63.39 66.70 64.96 70.07 68.00 70.00
C 69.22 67.40 68.99 64.22 72.00 63.00
M 65.00 67.00 
C 63.95 61.11 70.89 66.99 65.00 67.00 Z"/>
</g>
<g fill="#FFFFFF" fill-opacity="1.00" stroke="None">
<path d="
M 65.00 67.00 
C 70.89 66.99 63.95 61.11 65.00 67.00 Z"/>
</g>
<g fill="#090909" fill-opacity="0.14" stroke="None">
<path d="
M 83.00 85.00 
C 76.43 85.72 79.51 90.21 83.00 85.00 Z"/>
</g>
<g fill="#FFFFFF" fill-opacity="1.00" stroke="None">
<path d="
M 281.00 246.00 
C 281.00 232.00 281.00 218.00 281.00 204.00 C 279.72 192.74 287.03 170.31 268.00 175.00 C 240.00 175.00 212.00 175.00 184.00 175.00 C 165.01 170.23 172.27 192.86 171.00 204.00 C 171.00 218.00 171.00 232.00 171.00 246.00
C 165.01 246.68 150.88 242.72 156.00 253.00
C 131.67 253.00 107.33 253.00 83.00 253.00 C 59.89 254.32 35.39 250.26 13.22 255.22 C -7.34 266.81 5.65 296.30 2.00 316.00
C 6.33 316.00 10.67 316.00 15.00 316.00
C 17.13 298.84 6.21 265.38 33.00 267.00 C 120.99 267.02 208.98 266.97 296.98 267.02 C 322.91 266.36 311.64 299.15 314.00 316.00
C 318.33 316.00 322.67 316.00 327.00 316.00
C 326.79 300.22 327.35 284.22 326.98 269.02 C 324.49 254.46 307.75 251.46 295.00 253.00
C 296.70 251.02 297.49 248.73 297.00 246.00
C 291.67 246.00 286.33 246.00 281.00 246.00
M 274.00 182.00 
C 274.00 202.00 274.00 222.00 274.00 242.00
C 242.00 242.00 210.00 242.00 178.00 242.00
C 178.00 222.00 178.00 202.00 178.00 182.00
C 210.00 182.00 242.00 182.00 274.00 182.00 Z"/>
</g>
<g fill="#000000" fill-opacity="0.00" stroke="None">
<path d="
M 274.00 182.00 
C 242.00 182.00 210.00 182.00 178.00 182.00
C 178.00 202.00 178.00 222.00 178.00 242.00
C 210.00 242.00 242.00 242.00 274.00 242.00
C 274.00 222.00 274.00 202.00 274.00 182.00 Z"/>
</g>
</svg>