<svg width="360" height="360" viewBox="0 0 360 360" fill="none" xmlns="http://www.w3.org/2000/svg">
<path d="M180 0C279.411 0 360 80.5887 360 180C360 279.411 279.411 360 180 360C80.5887 360 0 279.411 0 180C0 80.5887 80.5887 0 180 0ZM107.091 91C98.2007 91 91 98.2007 91 107.091V251.909C91 260.799 98.2007 268 107.091 268H251.909C260.799 268 268 260.799 268 251.909V107.091C268 98.2007 260.799 91 251.909 91H107.091ZM146.948 235.818H123.214V159.451H146.948V235.818ZM207.378 157.552C231.409 157.552 235.851 173.37 235.851 193.934V235.818H212.133V198.681C212.133 189.823 211.971 178.43 199.799 178.43C187.449 178.43 185.55 188.077 185.55 198.037V235.818H161.832V159.451H184.601V169.886H184.923C188.093 163.884 195.833 157.552 207.378 157.552ZM134.84 120.864C142.467 120.864 148.67 127.068 148.67 134.695C148.67 142.33 142.467 148.533 134.84 148.533C127.189 148.533 121.002 142.33 121.002 134.695C121.002 127.06 127.197 120.864 134.84 120.864Z" fill="white"/>
</svg>
