<svg width="360" height="360" viewBox="0 0 360 360" fill="none" xmlns="http://www.w3.org/2000/svg">
<path d="M180 0C279.411 0 360 80.5887 360 180C360 279.411 279.411 360 180 360C80.5887 360 0 279.411 0 180C0 80.5887 80.5887 0 180 0ZM180 90C178.81 90.0002 177.631 90.2367 176.533 90.6953C175.435 91.1539 174.438 91.8256 173.602 92.6719L82.8281 171.879C82.2612 172.297 81.7999 172.843 81.4824 173.472C81.1649 174.101 81 174.795 81 175.5C81 176.693 81.4744 177.838 82.3184 178.682C83.1623 179.526 84.3065 180 85.5 180H108V252C108 256.968 112.032 261 117 261H153C157.968 261 162 256.968 162 252V198H198V252C198 256.968 202.032 261 207 261H243C247.968 261 252 256.968 252 252V180H274.5C275.693 180 276.838 179.526 277.682 178.682C278.526 177.838 279 176.693 279 175.5C279 174.795 278.835 174.101 278.518 173.472C278.2 172.843 277.739 172.297 277.172 171.879L186.451 92.7246C186.434 92.707 186.416 92.6894 186.398 92.6719C185.562 91.8256 184.565 91.1539 183.467 90.6953C182.369 90.2367 181.19 90.0002 180 90Z" fill="white"/>
</svg>
