<svg width="489" height="489" viewBox="0 0 489 489" fill="none" xmlns="http://www.w3.org/2000/svg">
<path d="M243.61 34.4426C240.183 33.0181 236.413 32.6379 232.771 33.3495C229.129 34.0612 225.778 35.8331 223.14 38.4426L122.32 138.263H53.79C51.3216 138.263 48.8774 138.749 46.5971 139.694C44.3167 140.639 42.2449 142.024 40.4999 143.77C38.755 145.515 37.3711 147.588 36.4274 149.869C35.4837 152.15 34.9987 154.594 35 157.063V333.663C34.9987 336.131 35.4837 338.575 36.4274 340.856C37.3711 343.137 38.755 345.21 40.4999 346.956C42.2449 348.701 44.3167 350.086 46.5971 351.031C48.8774 351.976 51.3216 352.463 53.79 352.463H122.32L223.14 452.293C225.778 454.894 229.126 456.658 232.763 457.363C236.4 458.068 240.164 457.682 243.583 456.255C247.002 454.827 249.923 452.422 251.979 449.34C254.035 446.258 255.135 442.637 255.14 438.933V51.7926C255.142 48.0861 254.049 44.4616 251.998 41.3746C249.946 38.2876 247.028 35.8759 243.61 34.4426Z" fill="black"/>
</svg>
