<svg width="360" height="360" viewBox="0 0 360 360" fill="none" xmlns="http://www.w3.org/2000/svg">
<path d="M180 0C279.411 0 360 80.5887 360 180C360 279.411 279.411 360 180 360C80.5887 360 0 279.411 0 180C0 80.5887 80.5887 0 180 0ZM193.759 85.5605C165.24 82.3307 134.004 92.9935 117.215 119.349C102.06 143.139 105.343 171.241 116.807 185.448C120.165 189.618 124.312 192.795 129.284 194.806C131.825 195.836 133.922 194.923 134.624 192.415C135.557 189.033 136.327 185.619 137.199 182.224C137.758 180.035 136.443 178.719 134.727 176.565C121.234 159.618 128.031 122.526 157.926 108.691C184.006 96.6074 225.105 104.718 227.318 142.233C228.449 161.047 222.53 187.603 207.272 198.673C190.728 210.685 171.378 198.987 175.519 182.53C180.532 162.59 187.05 149.1 184.585 138.783C180.58 122.116 157.7 123.662 151.325 143.869C148.39 153.221 149.05 162.454 152.422 171.548C152.722 172.365 152.953 173.116 152.749 174.021C138.67 233.248 137.322 237.006 136.961 247.935C136.688 256.318 137.315 264.651 138.466 272.959C138.582 273.805 138.664 274.745 139.712 274.969C140.672 275.168 141.122 274.365 141.605 273.749C145.862 268.277 149.712 262.557 153.124 256.523C160.296 243.824 161.065 237.754 168.04 210.405L168.469 208.938C169.559 210.296 170.458 211.625 171.582 212.757C186.104 227.557 217.585 225.963 237.011 201.85C253.889 180.874 255.21 151.193 253.378 139.153C249.346 112.737 227.815 89.4409 193.759 85.5605Z" fill="white"/>
</svg>
